<?xml version="1.0" encoding="utf-8"?>
<!-- Generator: Adobe Illustrator 24.3.0, SVG Export Plug-In . SVG Version: 6.00 Build 0)  -->
<svg version="1.1" id="Layer_1" xmlns="http://www.w3.org/2000/svg" xmlns:xlink="http://www.w3.org/1999/xlink" x="0px" y="0px"
	 width="155px" height="77.4px" viewBox="0 0 155 77.4" style="enable-background:new 0 0 155 77.4;" xml:space="preserve">
<polyline points="155,0 155,77.4 0,77.4 0,0 155,0 "/>
<polygon style="fill:#FFFFFF;" points="2.37,74.61 2.37,68.34 11.54,68.34 11.54,69.81 6.07,69.81 6.07,70.7 10.71,70.7
	10.71,72.16 6.07,72.16 6.07,73.14 11.77,73.14 11.77,74.61 "/>
<path style="fill:#FFFFFF;" d="M19.57,70.18c-0.05-0.21-0.26-0.35-0.54-0.42c-0.26-0.09-0.59-0.12-0.96-0.12
	c-0.82,0-1.17,0.14-1.17,0.37c0,0.92,6.47,0.35,6.47,2.62c0,1.45-2.18,2.16-5.27,2.16c-2.96,0-4.9-0.96-4.99-2.09h3.52
	c0.09,0.23,0.3,0.38,0.61,0.49c0.3,0.1,0.68,0.16,1.05,0.16c0.92,0,1.53-0.16,1.53-0.45c0-0.94-6.47-0.3-6.47-2.69
	c0-1.33,2.06-2.01,4.88-2.01c3.12,0,4.55,0.89,4.81,1.99C23.05,70.18,19.57,70.18,19.57,70.18z"/>
<path style="fill:#FFFFFF;" d="M28.9,71.06h1.45c1.13,0,1.74-0.17,1.74-0.59c0-0.44-0.63-0.66-1.48-0.66h-1.73v1.26h0.02V71.06z
	 M28.9,72.43v2.18h-3.68v-6.26h5.32c3.75,0,4.99,0.58,4.99,1.8c0,0.73-0.58,1.33-1.88,1.53c1.19,0.24,1.9,0.38,1.9,1.66
	c0,0.82-0.05,1.1,0.38,1.1v0.19H32.2c-0.09-0.14-0.19-0.54-0.19-1.1c0-0.82-0.24-1.08-1.97-1.08H28.9V72.43z"/>
<path style="fill:#FFFFFF;" d="M41.45,69.81v1.05h1.53c0.73,0,1.27-0.19,1.27-0.54c0-0.49-0.73-0.51-1.5-0.51
	C42.76,69.81,41.45,69.81,41.45,69.81z M41.45,71.99v1.15h1.6c0.91,0,1.6-0.1,1.6-0.58c0-0.54-0.85-0.58-2.04-0.58
	C42.62,71.99,41.45,71.99,41.45,71.99z M37.77,74.61v-6.26h5.37c2.53,0,4.55,0.35,4.55,1.59c0,0.65-0.75,1.12-1.46,1.36
	c1.22,0.17,1.87,0.77,1.87,1.43c0,1.4-1.92,1.88-4.85,1.88C43.25,74.61,37.77,74.61,37.77,74.61z"/>
<rect x="2.39" y="2.76" style="fill:#FFFFFF;" width="45.67" height="12.84"/>
<rect x="2.37" y="18.38" style="fill:#FFFFFF;" width="45.71" height="47.17"/>
<rect x="50.85" y="2.74" style="fill:#FFFFFF;" width="101.43" height="71.88"/>
<polygon points="4.01,30.07 18.03,26.28 26.02,45.12 26.09,45.1 23.68,24.78 37.7,21 46.44,53.87 37.9,56.17 31.65,32.66
	31.58,32.7 34.23,57.15 24.99,59.64 15.14,37.13 15.07,37.15 21.29,60.64 12.77,62.94 "/>
<path d="M3.61,12.8V5.53h2.06l0.96,4.94h0.02l1.03-4.94h1.99v7.27H8.42V7.18H8.41L7.22,12.8H6L4.87,7.18l0,0v5.62
	C4.87,12.8,3.61,12.8,3.61,12.8z"/>
<path d="M10.24,12.8l1.69-7.27h1.69l1.66,7.27h-1.33l-0.35-1.62h-1.74l-0.35,1.62H10.24z M12.71,6.92H12.7l-0.59,3.14h1.22
	L12.71,6.92z"/>
<path d="M19.04,5.53v1.2h-1.43v6.05h-1.29V6.73h-1.41v-1.2C14.91,5.53,19.04,5.53,19.04,5.53z"/>
<path d="M23.79,5.53v5.16c0,0.28-0.03,0.54-0.1,0.8S23.5,12,23.34,12.21s-0.38,0.38-0.65,0.51c-0.26,0.14-0.59,0.19-0.98,0.19
	c-0.72,0-1.24-0.21-1.57-0.61c-0.35-0.4-0.51-0.94-0.51-1.64V5.53h1.29v5.06c0,0.45,0.07,0.77,0.21,0.96s0.33,0.3,0.58,0.3
	c0.28,0,0.49-0.1,0.61-0.31c0.14-0.21,0.19-0.52,0.19-0.92V5.55h1.27L23.79,5.53L23.79,5.53z"/>
<path d="M26.07,12.8h-1.29V5.53h2.37c0.44,0,0.78,0.16,1.05,0.49c0.26,0.31,0.38,0.8,0.38,1.41c0,0.47-0.09,0.85-0.26,1.19
	c-0.17,0.31-0.47,0.52-0.87,0.61v0.02c0.07,0.02,0.16,0.03,0.3,0.05c0.12,0.02,0.24,0.09,0.37,0.17c0.12,0.09,0.23,0.23,0.31,0.42
	c0.09,0.19,0.14,0.44,0.14,0.77c0,0.12,0,0.28,0,0.49s0.02,0.42,0.02,0.65c0.02,0.23,0.02,0.42,0.05,0.61
	c0.02,0.19,0.03,0.31,0.07,0.4h-1.26c-0.09-0.23-0.12-0.45-0.14-0.7c0-0.24,0-0.49,0-0.72c0-0.21,0-0.42,0-0.61
	s-0.03-0.37-0.09-0.51c-0.05-0.14-0.14-0.26-0.28-0.35c-0.12-0.09-0.31-0.14-0.56-0.14h-0.33v3.02C26.05,12.8,26.07,12.8,26.07,12.8
	z M26.07,8.67h0.58c0.12,0,0.23-0.03,0.31-0.1c0.09-0.07,0.16-0.16,0.21-0.26s0.09-0.23,0.1-0.35c0.02-0.12,0.03-0.24,0.03-0.37
	c0-0.35-0.05-0.59-0.17-0.73s-0.28-0.21-0.47-0.21h-0.58v2.02H26.07z"/>
<path d="M29.54,12.8V5.53h3.35v1.12h-2.06v1.8h1.9v1.12h-1.9v2.13h2.13v1.12C32.96,12.8,29.54,12.8,29.54,12.8z"/>
<path d="M35.56,6.63c0.21-0.14,0.42-0.31,0.63-0.49c0.19-0.17,0.37-0.4,0.52-0.65h1.13v7.31h-1.29V7.17
	c-0.16,0.16-0.31,0.31-0.49,0.44c-0.17,0.14-0.35,0.26-0.52,0.38V6.63H35.56z"/>
<path d="M42.36,6.89l-1.45,5.91h-1.33l1.62-6.17h-2.04V5.49h3.19v1.4H42.36z"/>
<path d="M44.35,6.94h0.94v1.99h1.43v1.12h-1.43v1.99h-0.94v-1.99H42.9V8.93h1.45C44.35,8.93,44.35,6.94,44.35,6.94z"/>
<g>
	<path style="fill:#231F20;" d="M57.98,18.39V8.36h3.09c0.63,0,1.12,0.1,1.49,0.29c0.36,0.19,0.66,0.5,0.9,0.9
		c0.23,0.41,0.35,0.86,0.35,1.36c0,0.46-0.1,0.87-0.3,1.24c-0.2,0.37-0.48,0.67-0.85,0.89c0.48,0.17,0.85,0.47,1.13,0.89
		c0.27,0.42,0.41,0.93,0.41,1.54c0,0.61-0.12,1.14-0.37,1.6c-0.25,0.46-0.58,0.79-0.99,1s-0.98,0.31-1.71,0.31H57.98z M59.07,12.58
		h1.78c0.47,0,0.8-0.03,0.99-0.1c0.28-0.1,0.5-0.26,0.65-0.48s0.23-0.53,0.23-0.92c0-0.36-0.07-0.66-0.21-0.9s-0.32-0.4-0.55-0.5
		s-0.65-0.14-1.24-0.14h-1.65V12.58z M59.07,17.2h2.05c0.45,0,0.79-0.04,1-0.12c0.31-0.12,0.55-0.31,0.71-0.58s0.24-0.61,0.24-1.02
		c0-0.38-0.08-0.7-0.23-0.96s-0.36-0.45-0.63-0.57s-0.67-0.18-1.24-0.18h-1.9V17.2z"/>
	<path style="fill:#231F20;" d="M65.5,18.39V8.36h1v10.02H65.5z"/>
	<path style="fill:#231F20;" d="M67.71,14.76c0-1.25,0.26-2.2,0.79-2.84s1.19-0.96,2-0.96c0.79,0,1.46,0.32,1.99,0.96
		s0.8,1.56,0.8,2.76c0,1.3-0.26,2.27-0.79,2.91s-1.19,0.96-2,0.96c-0.8,0-1.46-0.32-1.99-0.96S67.71,16,67.71,14.76z M68.74,14.75
		c0,0.94,0.17,1.64,0.51,2.1c0.34,0.46,0.77,0.69,1.27,0.69c0.47,0,0.88-0.23,1.22-0.69c0.34-0.46,0.51-1.16,0.51-2.09
		c0-0.94-0.17-1.63-0.51-2.09s-0.77-0.69-1.27-0.69c-0.48,0-0.89,0.23-1.22,0.69S68.74,13.82,68.74,14.75z"/>
	<path style="fill:#231F20;" d="M74.09,14.76c0-1.25,0.26-2.2,0.79-2.84s1.19-0.96,2-0.96c0.79,0,1.46,0.32,1.99,0.96
		s0.8,1.56,0.8,2.76c0,1.3-0.26,2.27-0.79,2.91c-0.52,0.64-1.19,0.96-2,0.96c-0.8,0-1.46-0.32-1.99-0.96S74.09,16,74.09,14.76z
		 M75.12,14.75c0,0.94,0.17,1.64,0.51,2.1c0.34,0.46,0.77,0.69,1.27,0.69c0.47,0,0.88-0.23,1.22-0.69c0.34-0.46,0.51-1.16,0.51-2.09
		c0-0.94-0.17-1.63-0.51-2.09s-0.77-0.69-1.27-0.69c-0.48,0-0.89,0.23-1.22,0.69S75.12,13.82,75.12,14.75z"/>
	<path style="fill:#231F20;" d="M84.71,18.39v-0.92c-0.18,0.35-0.42,0.62-0.7,0.8s-0.6,0.28-0.93,0.28c-0.7,0-1.31-0.33-1.82-0.99
		s-0.77-1.6-0.77-2.8c0-0.82,0.11-1.52,0.34-2.1s0.53-1,0.91-1.28s0.8-0.42,1.27-0.42c0.33,0,0.64,0.09,0.92,0.26
		s0.52,0.42,0.71,0.73v-3.6h1.02v10.02H84.71z M81.52,14.76c0,0.94,0.16,1.64,0.49,2.09s0.71,0.68,1.14,0.68
		c0.43,0,0.8-0.22,1.12-0.66s0.47-1.1,0.47-1.98c0-1.02-0.16-1.76-0.47-2.23s-0.71-0.7-1.19-0.7c-0.42,0-0.79,0.22-1.09,0.67
		C81.67,13.1,81.52,13.8,81.52,14.76z"/>
	<path style="fill:#231F20;" d="M94.31,17.49c-0.34,0.35-0.69,0.62-1.05,0.79c-0.36,0.18-0.74,0.27-1.13,0.27
		c-0.62,0-1.11-0.19-1.48-0.56s-0.55-0.88-0.55-1.51c0-0.42,0.09-0.79,0.26-1.11c0.17-0.32,0.41-0.58,0.71-0.76s0.76-0.32,1.37-0.4
		c0.82-0.12,1.42-0.26,1.8-0.43l0.01-0.31c0-0.5-0.09-0.85-0.27-1.05c-0.25-0.29-0.64-0.44-1.16-0.44c-0.47,0-0.82,0.1-1.05,0.29
		c-0.23,0.19-0.4,0.56-0.51,1.1l-0.99-0.16c0.14-0.78,0.43-1.35,0.86-1.7s1.05-0.53,1.85-0.53c0.62,0,1.11,0.12,1.47,0.35
		s0.58,0.53,0.67,0.87c0.09,0.35,0.14,0.85,0.14,1.52v1.64c0,1.15,0.02,1.87,0.07,2.17c0.04,0.3,0.13,0.59,0.26,0.87h-1.05
		C94.41,18.14,94.34,17.84,94.31,17.49z M94.23,14.74c-0.37,0.18-0.92,0.34-1.65,0.46c-0.42,0.07-0.72,0.16-0.89,0.25
		c-0.17,0.09-0.3,0.23-0.39,0.4c-0.09,0.17-0.14,0.37-0.14,0.59c0,0.35,0.11,0.62,0.32,0.83c0.21,0.21,0.51,0.31,0.89,0.31
		c0.36,0,0.69-0.09,0.98-0.28s0.51-0.44,0.66-0.75c0.15-0.31,0.22-0.77,0.22-1.36V14.74z"/>
	<path style="fill:#231F20;" d="M96.82,18.39v-7.26h0.91v1.03c0.22-0.4,0.49-0.7,0.8-0.89c0.32-0.2,0.68-0.3,1.09-0.3
		c0.32,0,0.61,0.06,0.88,0.19s0.49,0.29,0.66,0.49s0.29,0.47,0.37,0.79c0.08,0.32,0.12,0.82,0.12,1.49v4.46h-1v-4.42
		c0-0.53-0.04-0.92-0.14-1.17c-0.09-0.25-0.23-0.44-0.43-0.57c-0.19-0.13-0.42-0.2-0.67-0.2c-0.48,0-0.87,0.18-1.16,0.54
		s-0.43,0.98-0.43,1.85v3.97H96.82z"/>
	<path style="fill:#231F20;" d="M107.06,18.39v-0.92c-0.18,0.35-0.42,0.62-0.7,0.8s-0.6,0.28-0.93,0.28c-0.7,0-1.31-0.33-1.82-0.99
		s-0.77-1.6-0.77-2.8c0-0.82,0.11-1.52,0.34-2.1s0.53-1,0.91-1.28s0.8-0.42,1.27-0.42c0.33,0,0.64,0.09,0.92,0.26
		s0.52,0.42,0.71,0.73v-3.6H108v10.02H107.06z M103.87,14.76c0,0.94,0.16,1.64,0.49,2.09s0.71,0.68,1.14,0.68
		c0.43,0,0.8-0.22,1.12-0.66s0.47-1.1,0.47-1.98c0-1.02-0.16-1.76-0.47-2.23s-0.71-0.7-1.19-0.7c-0.42,0-0.79,0.22-1.09,0.67
		C104.02,13.1,103.87,13.8,103.87,14.76z"/>
	<path style="fill:#231F20;" d="M116.79,14.46v-1.18l3.48-0.01v3.73c-0.53,0.52-1.08,0.91-1.65,1.17c-0.57,0.26-1.16,0.39-1.76,0.39
		c-0.8,0-1.52-0.2-2.15-0.6c-0.63-0.4-1.13-0.99-1.49-1.76c-0.37-0.77-0.55-1.7-0.55-2.78c0-1.09,0.18-2.05,0.55-2.86
		c0.37-0.81,0.85-1.41,1.45-1.8c0.6-0.39,1.3-0.58,2.12-0.58c0.6,0,1.13,0.11,1.58,0.33s0.82,0.54,1.11,0.95
		c0.29,0.41,0.51,0.97,0.66,1.69l-0.98,0.33c-0.13-0.56-0.3-0.99-0.5-1.27c-0.2-0.28-0.46-0.5-0.79-0.66s-0.7-0.24-1.11-0.24
		c-0.6,0-1.11,0.15-1.54,0.43s-0.78,0.74-1.04,1.35c-0.26,0.61-0.39,1.36-0.39,2.24c0,1.34,0.28,2.35,0.84,3.01
		c0.56,0.67,1.29,1,2.19,1c0.43,0,0.87-0.1,1.32-0.31c0.45-0.21,0.81-0.45,1.07-0.73v-1.87H116.79z"/>
	<path style="fill:#231F20;" d="M121.33,14.76c0-1.25,0.26-2.2,0.79-2.84s1.19-0.96,2-0.96c0.79,0,1.46,0.32,1.99,0.96
		s0.8,1.56,0.8,2.76c0,1.3-0.26,2.27-0.79,2.91c-0.52,0.64-1.19,0.96-2,0.96c-0.8,0-1.46-0.32-1.99-0.96
		C121.6,16.95,121.33,16,121.33,14.76z M122.37,14.75c0,0.94,0.17,1.64,0.51,2.1c0.34,0.46,0.77,0.69,1.27,0.69
		c0.47,0,0.88-0.23,1.22-0.69c0.34-0.46,0.51-1.16,0.51-2.09c0-0.94-0.17-1.63-0.51-2.09s-0.77-0.69-1.27-0.69
		c-0.48,0-0.89,0.23-1.22,0.69C122.53,13.13,122.37,13.82,122.37,14.75z"/>
	<path style="fill:#231F20;" d="M128.1,18.39v-7.26h0.91v1.1c0.23-0.51,0.45-0.85,0.64-1.02c0.19-0.17,0.41-0.25,0.65-0.25
		c0.34,0,0.68,0.13,1.03,0.4l-0.34,1.14c-0.25-0.18-0.49-0.27-0.73-0.27c-0.21,0-0.41,0.08-0.59,0.23s-0.3,0.36-0.38,0.63
		c-0.13,0.47-0.19,0.97-0.19,1.5v3.8H128.1z"/>
	<path style="fill:#231F20;" d="M135.99,16.05l1.04,0.16c-0.17,0.77-0.49,1.36-0.94,1.75c-0.45,0.39-1.02,0.59-1.69,0.59
		c-0.84,0-1.53-0.32-2.05-0.96c-0.52-0.64-0.78-1.56-0.78-2.77c0-1.25,0.26-2.21,0.79-2.87s1.19-0.99,2-0.99
		c0.77,0,1.41,0.32,1.93,0.97c0.52,0.65,0.77,1.58,0.77,2.81l-0.01,0.33h-4.44c0.04,0.82,0.23,1.43,0.57,1.85
		c0.34,0.41,0.75,0.62,1.23,0.62C135.17,17.54,135.69,17.04,135.99,16.05z M132.67,14.06H136c-0.04-0.63-0.18-1.1-0.4-1.41
		c-0.32-0.45-0.74-0.68-1.24-0.68c-0.45,0-0.84,0.19-1.16,0.56C132.88,12.91,132.71,13.42,132.67,14.06z"/>
	<path style="fill:#231F20;" d="M58.23,35.19V25.16h1.09v10.02H58.23z"/>
	<path style="fill:#231F20;" d="M61.07,35.19v-7.26h0.91v1.03c0.22-0.4,0.49-0.7,0.8-0.89c0.32-0.2,0.68-0.3,1.09-0.3
		c0.32,0,0.61,0.06,0.88,0.19s0.49,0.29,0.66,0.49s0.29,0.47,0.37,0.79c0.08,0.32,0.12,0.82,0.12,1.49v4.46h-1v-4.42
		c0-0.53-0.05-0.92-0.14-1.17c-0.09-0.25-0.23-0.44-0.43-0.57c-0.19-0.13-0.42-0.2-0.67-0.2c-0.48,0-0.87,0.18-1.16,0.54
		s-0.43,0.98-0.43,1.85v3.97H61.07z"/>
	<path style="fill:#231F20;" d="M69.7,34.09l0.14,1.09c-0.28,0.07-0.53,0.11-0.75,0.11c-0.35,0-0.63-0.07-0.85-0.21
		s-0.36-0.33-0.44-0.57s-0.12-0.72-0.12-1.44v-4.18h-0.74v-0.96h0.74v-1.8l1-0.74v2.54h1.02v0.96h-1.02v4.25
		c0,0.39,0.03,0.65,0.09,0.76c0.09,0.16,0.25,0.25,0.49,0.25C69.37,34.13,69.52,34.12,69.7,34.09z"/>
	<path style="fill:#231F20;" d="M74.72,32.85l1.04,0.16c-0.17,0.77-0.49,1.36-0.94,1.75s-1.02,0.59-1.69,0.59
		c-0.84,0-1.53-0.32-2.05-0.96s-0.78-1.56-0.78-2.77c0-1.25,0.26-2.21,0.79-2.87s1.19-0.99,2-0.99c0.77,0,1.41,0.32,1.93,0.97
		s0.77,1.58,0.77,2.81l-0.01,0.33h-4.44c0.04,0.82,0.23,1.43,0.57,1.85s0.75,0.62,1.23,0.62C73.9,34.34,74.42,33.84,74.72,32.85z
		 M71.4,30.86h3.32c-0.05-0.63-0.18-1.1-0.4-1.41C74,29,73.59,28.77,73.08,28.77c-0.45,0-0.84,0.19-1.16,0.56
		S71.44,30.22,71.4,30.86z"/>
	<path style="fill:#231F20;" d="M77.04,35.19v-7.26h0.91v1.03c0.22-0.4,0.49-0.7,0.8-0.89c0.32-0.2,0.68-0.3,1.09-0.3
		c0.32,0,0.61,0.06,0.88,0.19s0.49,0.29,0.66,0.49s0.29,0.47,0.37,0.79c0.08,0.32,0.12,0.82,0.12,1.49v4.46h-1v-4.42
		c0-0.53-0.04-0.92-0.14-1.17c-0.09-0.25-0.23-0.44-0.43-0.57c-0.19-0.13-0.42-0.2-0.67-0.2c-0.48,0-0.87,0.18-1.16,0.54
		s-0.43,0.98-0.43,1.85v3.97H77.04z"/>
	<path style="fill:#231F20;" d="M83.03,33.01l1-0.19c0.06,0.51,0.22,0.89,0.48,1.14c0.26,0.25,0.61,0.37,1.05,0.37
		c0.44,0,0.77-0.11,1.01-0.32c0.24-0.22,0.36-0.49,0.36-0.82c0-0.29-0.1-0.51-0.31-0.67c-0.14-0.11-0.48-0.25-1.03-0.41
		c-0.78-0.24-1.31-0.45-1.57-0.62c-0.26-0.17-0.47-0.39-0.62-0.68c-0.15-0.28-0.22-0.6-0.22-0.96c0-0.62,0.2-1.12,0.59-1.51
		s0.95-0.58,1.65-0.58c0.44,0,0.83,0.08,1.17,0.24s0.59,0.37,0.77,0.64s0.3,0.65,0.37,1.16l-0.98,0.16
		c-0.09-0.79-0.52-1.19-1.29-1.19c-0.44,0-0.76,0.09-0.98,0.26c-0.21,0.17-0.32,0.4-0.32,0.67c0,0.27,0.1,0.48,0.31,0.63
		c0.12,0.09,0.49,0.24,1.1,0.44c0.83,0.27,1.38,0.48,1.62,0.63c0.25,0.16,0.44,0.37,0.57,0.64c0.14,0.27,0.2,0.59,0.2,0.97
		c0,0.69-0.22,1.26-0.66,1.68c-0.44,0.43-1.04,0.64-1.8,0.64C84.09,35.35,83.26,34.57,83.03,33.01z"/>
	<path style="fill:#231F20;" d="M93.23,32.85l1.04,0.16c-0.17,0.77-0.49,1.36-0.94,1.75c-0.45,0.39-1.02,0.59-1.69,0.59
		c-0.84,0-1.53-0.32-2.05-0.96c-0.52-0.64-0.78-1.56-0.78-2.77c0-1.25,0.26-2.21,0.79-2.87s1.19-0.99,2-0.99
		c0.77,0,1.41,0.32,1.93,0.97c0.52,0.65,0.77,1.58,0.77,2.81l-0.01,0.33h-4.44c0.04,0.82,0.23,1.43,0.57,1.85
		c0.34,0.41,0.75,0.62,1.23,0.62C92.41,34.34,92.93,33.84,93.23,32.85z M89.92,30.86h3.32c-0.04-0.63-0.18-1.1-0.4-1.41
		c-0.32-0.45-0.74-0.68-1.24-0.68c-0.45,0-0.84,0.19-1.16,0.56C90.12,29.71,89.95,30.22,89.92,30.86z"/>
	<path style="fill:#231F20;" d="M101.24,35.19l-3.19-10.02h1.18l2.14,7.28c0.16,0.56,0.31,1.11,0.43,1.64
		c0.13-0.55,0.27-1.1,0.44-1.64l2.22-7.28h1.11l-3.21,10.02H101.24z"/>
	<path style="fill:#231F20;" d="M106.2,26.58v-1.42h1v1.42H106.2z M106.2,35.19v-7.26h1v7.26H106.2z"/>
	<path style="fill:#231F20;" d="M108.37,31.56c0-1.25,0.26-2.2,0.79-2.84s1.19-0.96,2-0.96c0.79,0,1.46,0.32,1.99,0.96
		s0.8,1.56,0.8,2.76c0,1.3-0.26,2.27-0.79,2.91c-0.52,0.64-1.19,0.96-2,0.96c-0.8,0-1.46-0.32-1.99-0.96
		C108.63,33.75,108.37,32.8,108.37,31.56z M109.4,31.55c0,0.94,0.17,1.64,0.51,2.1c0.34,0.46,0.77,0.69,1.27,0.69
		c0.47,0,0.88-0.23,1.22-0.69c0.34-0.46,0.51-1.16,0.51-2.09c0-0.94-0.17-1.63-0.51-2.09s-0.77-0.69-1.27-0.69
		c-0.48,0-0.89,0.23-1.22,0.69C109.57,29.93,109.4,30.62,109.4,31.55z"/>
	<path style="fill:#231F20;" d="M115.1,35.19V25.16h1v10.02H115.1z"/>
	<path style="fill:#231F20;" d="M121.75,32.85l1.04,0.16c-0.17,0.77-0.49,1.36-0.94,1.75c-0.45,0.39-1.02,0.59-1.69,0.59
		c-0.84,0-1.53-0.32-2.05-0.96c-0.52-0.64-0.78-1.56-0.78-2.77c0-1.25,0.26-2.21,0.79-2.87s1.19-0.99,2-0.99
		c0.77,0,1.41,0.32,1.93,0.97c0.52,0.65,0.77,1.58,0.77,2.81l-0.01,0.33h-4.44c0.04,0.82,0.23,1.43,0.57,1.85
		c0.34,0.41,0.75,0.62,1.23,0.62C120.93,34.34,121.45,33.84,121.75,32.85z M118.43,30.86h3.32c-0.04-0.63-0.18-1.1-0.4-1.41
		c-0.32-0.45-0.74-0.68-1.24-0.68c-0.45,0-0.84,0.19-1.16,0.56C118.64,29.71,118.47,30.22,118.43,30.86z"/>
	<path style="fill:#231F20;" d="M124.07,35.19v-7.26h0.91v1.03c0.22-0.4,0.49-0.7,0.8-0.89c0.32-0.2,0.68-0.3,1.09-0.3
		c0.32,0,0.61,0.06,0.88,0.19s0.49,0.29,0.66,0.49s0.29,0.47,0.37,0.79c0.08,0.32,0.12,0.82,0.12,1.49v4.46h-1v-4.42
		c0-0.53-0.04-0.92-0.14-1.17c-0.09-0.25-0.23-0.44-0.43-0.57c-0.19-0.13-0.42-0.2-0.67-0.2c-0.48,0-0.87,0.18-1.16,0.54
		s-0.43,0.98-0.43,1.85v3.97H124.07z"/>
	<path style="fill:#231F20;" d="M134.35,32.53l0.99,0.16c-0.11,0.87-0.4,1.53-0.86,1.98s-1.01,0.68-1.65,0.68
		c-0.78,0-1.42-0.32-1.92-0.96c-0.5-0.64-0.76-1.59-0.76-2.84c0-1.26,0.25-2.21,0.76-2.84c0.51-0.63,1.16-0.95,1.96-0.95
		c0.62,0,1.13,0.19,1.56,0.57c0.42,0.38,0.69,0.96,0.81,1.72l-0.98,0.18c-0.1-0.49-0.26-0.86-0.5-1.1
		c-0.24-0.24-0.52-0.36-0.85-0.36c-0.5,0-0.91,0.22-1.23,0.66c-0.33,0.44-0.49,1.14-0.49,2.1c0,0.99,0.16,1.7,0.47,2.15
		c0.31,0.44,0.71,0.66,1.2,0.66c0.38,0,0.71-0.15,0.98-0.44C134.1,33.6,134.28,33.15,134.35,32.53z"/>
	<path style="fill:#231F20;" d="M140.26,32.85l1.04,0.16c-0.17,0.77-0.49,1.36-0.94,1.75c-0.45,0.39-1.02,0.59-1.69,0.59
		c-0.84,0-1.53-0.32-2.05-0.96c-0.52-0.64-0.78-1.56-0.78-2.77c0-1.25,0.26-2.21,0.79-2.87s1.19-0.99,2-0.99
		c0.77,0,1.41,0.32,1.93,0.97c0.52,0.65,0.77,1.58,0.77,2.81l-0.01,0.33h-4.44c0.04,0.82,0.23,1.43,0.57,1.85
		c0.34,0.41,0.75,0.62,1.23,0.62C139.44,34.34,139.97,33.84,140.26,32.85z M136.95,30.86h3.32c-0.04-0.63-0.18-1.1-0.4-1.41
		c-0.32-0.45-0.74-0.68-1.24-0.68c-0.45,0-0.84,0.19-1.16,0.56C137.15,29.71,136.98,30.22,136.95,30.86z"/>
	<path style="fill:#231F20;" d="M57.66,48.76l1.03-0.11c0.05,0.55,0.18,0.98,0.37,1.29s0.47,0.55,0.83,0.74
		c0.36,0.19,0.77,0.28,1.22,0.28c0.65,0,1.15-0.16,1.51-0.47c0.36-0.32,0.54-0.73,0.54-1.23c0-0.29-0.06-0.55-0.19-0.77
		s-0.33-0.4-0.59-0.54c-0.26-0.14-0.83-0.34-1.7-0.6c-0.77-0.23-1.33-0.46-1.65-0.69s-0.58-0.53-0.77-0.89
		c-0.18-0.36-0.27-0.76-0.27-1.21c0-0.81,0.26-1.47,0.79-1.99c0.52-0.52,1.23-0.77,2.12-0.77c0.61,0,1.15,0.12,1.6,0.36
		c0.46,0.24,0.81,0.59,1.07,1.04s0.39,0.98,0.41,1.59l-1.05,0.1c-0.05-0.65-0.25-1.13-0.58-1.45s-0.81-0.47-1.41-0.47
		c-0.62,0-1.08,0.14-1.41,0.41c-0.32,0.28-0.49,0.63-0.49,1.07c0,0.41,0.12,0.72,0.36,0.94c0.24,0.22,0.77,0.45,1.6,0.68
		c0.81,0.22,1.38,0.42,1.71,0.58c0.5,0.26,0.88,0.59,1.14,1.01c0.26,0.42,0.38,0.91,0.38,1.49c0,0.57-0.13,1.1-0.4,1.57
		c-0.27,0.47-0.63,0.83-1.1,1.08s-1.02,0.37-1.67,0.37c-1.02,0-1.83-0.31-2.43-0.92C57.99,50.63,57.68,49.8,57.66,48.76z"/>
	<path style="fill:#231F20;" d="M67.78,50.89l0.14,1.09c-0.28,0.07-0.53,0.11-0.75,0.11c-0.35,0-0.63-0.07-0.85-0.21
		c-0.21-0.14-0.36-0.33-0.44-0.57c-0.08-0.24-0.12-0.72-0.12-1.44v-4.18h-0.74v-0.96h0.74v-1.8l1-0.74v2.54h1.02v0.96h-1.02v4.25
		c0,0.39,0.03,0.64,0.09,0.76c0.09,0.16,0.25,0.25,0.49,0.25C67.45,50.93,67.6,50.92,67.78,50.89z"/>
	<path style="fill:#231F20;" d="M68.73,51.99v-7.26h0.91v1.1c0.23-0.51,0.45-0.85,0.64-1.02c0.19-0.17,0.41-0.25,0.65-0.25
		c0.34,0,0.68,0.13,1.03,0.4l-0.34,1.14c-0.25-0.18-0.49-0.27-0.73-0.27c-0.21,0-0.41,0.08-0.59,0.23s-0.3,0.36-0.38,0.63
		c-0.13,0.47-0.19,0.97-0.19,1.5v3.8H68.73z"/>
	<path style="fill:#231F20;" d="M72.17,48.36c0-1.25,0.26-2.2,0.79-2.84c0.53-0.64,1.19-0.96,2-0.96c0.79,0,1.46,0.32,1.99,0.96
		c0.53,0.64,0.8,1.56,0.8,2.76c0,1.3-0.26,2.27-0.79,2.91c-0.52,0.64-1.19,0.96-2,0.96c-0.8,0-1.46-0.32-1.99-0.96
		C72.43,50.55,72.17,49.6,72.17,48.36z M73.2,48.35c0,0.94,0.17,1.64,0.51,2.1c0.34,0.46,0.77,0.69,1.27,0.69
		c0.47,0,0.88-0.23,1.22-0.7c0.34-0.46,0.51-1.16,0.51-2.09c0-0.94-0.17-1.63-0.51-2.09c-0.34-0.46-0.77-0.69-1.27-0.69
		c-0.48,0-0.89,0.23-1.22,0.69S73.2,47.42,73.2,48.35z"/>
	<path style="fill:#231F20;" d="M78.94,51.99v-7.26h0.91v1.03c0.22-0.4,0.49-0.7,0.8-0.89c0.32-0.2,0.68-0.3,1.09-0.3
		c0.32,0,0.61,0.06,0.88,0.19c0.27,0.13,0.49,0.29,0.66,0.49c0.17,0.2,0.29,0.47,0.37,0.79c0.08,0.32,0.12,0.82,0.12,1.49v4.46h-1
		v-4.42c0-0.53-0.04-0.92-0.14-1.17c-0.09-0.25-0.23-0.44-0.43-0.57c-0.19-0.13-0.42-0.2-0.67-0.2c-0.48,0-0.87,0.18-1.16,0.54
		s-0.43,0.98-0.43,1.85v3.97H78.94z"/>
	<path style="fill:#231F20;" d="M85.12,52.59l0.98,0.18c0.05,0.39,0.18,0.68,0.41,0.87c0.23,0.19,0.54,0.29,0.95,0.29
		c0.44,0,0.79-0.11,1.06-0.32c0.26-0.21,0.44-0.53,0.54-0.95c0.06-0.26,0.09-0.79,0.09-1.61c-0.22,0.31-0.46,0.55-0.74,0.71
		c-0.27,0.16-0.58,0.24-0.91,0.24c-0.71,0-1.3-0.3-1.77-0.9c-0.54-0.69-0.81-1.62-0.81-2.78c0-0.78,0.12-1.46,0.36-2.04
		c0.24-0.58,0.55-1.01,0.93-1.29c0.38-0.27,0.82-0.41,1.29-0.41c0.35,0,0.67,0.09,0.96,0.26c0.29,0.17,0.55,0.43,0.77,0.77v-0.87
		h0.93V51c0,1.12-0.09,1.91-0.27,2.39c-0.18,0.48-0.48,0.85-0.9,1.13c-0.41,0.28-0.91,0.41-1.5,0.41c-0.77,0-1.36-0.21-1.78-0.62
		C85.31,53.9,85.11,53.32,85.12,52.59z M85.96,48.23c0,0.95,0.16,1.65,0.47,2.09c0.32,0.44,0.7,0.66,1.16,0.66
		c0.46,0,0.84-0.21,1.16-0.64c0.32-0.43,0.48-1.11,0.48-2.05c0-0.91-0.16-1.59-0.49-2.04s-0.73-0.67-1.2-0.67
		c-0.42,0-0.79,0.22-1.11,0.67S85.96,47.35,85.96,48.23z"/>
	<path style="fill:#231F20;" d="M94.97,51.99V41.97h1.09v8.84h4.05v1.18H94.97z"/>
	<path style="fill:#231F20;" d="M105.16,51.09c-0.34,0.35-0.69,0.62-1.05,0.79c-0.36,0.18-0.74,0.27-1.13,0.27
		c-0.62,0-1.11-0.19-1.48-0.56c-0.37-0.37-0.55-0.88-0.55-1.51c0-0.42,0.09-0.79,0.26-1.11c0.17-0.32,0.41-0.58,0.71-0.76
		c0.3-0.18,0.76-0.32,1.37-0.4c0.82-0.12,1.42-0.26,1.8-0.43l0.01-0.31c0-0.5-0.09-0.85-0.27-1.05c-0.25-0.29-0.64-0.44-1.16-0.44
		c-0.47,0-0.82,0.1-1.05,0.29s-0.4,0.56-0.51,1.1l-0.99-0.16c0.14-0.78,0.43-1.35,0.86-1.7s1.05-0.53,1.85-0.53
		c0.62,0,1.11,0.12,1.47,0.35c0.36,0.24,0.58,0.53,0.67,0.87c0.09,0.35,0.14,0.85,0.14,1.52v1.64c0,1.15,0.02,1.87,0.07,2.17
		c0.04,0.3,0.13,0.59,0.26,0.87h-1.05C105.26,51.74,105.19,51.44,105.16,51.09z M105.08,48.34c-0.37,0.18-0.92,0.34-1.65,0.46
		c-0.42,0.07-0.72,0.16-0.89,0.25c-0.17,0.09-0.3,0.23-0.39,0.4c-0.09,0.17-0.14,0.37-0.14,0.59c0,0.35,0.11,0.62,0.32,0.83
		c0.21,0.21,0.51,0.31,0.89,0.31c0.36,0,0.69-0.09,0.98-0.28c0.29-0.19,0.51-0.44,0.66-0.75c0.15-0.31,0.22-0.77,0.22-1.36V48.34z"
		/>
	<path style="fill:#231F20;" d="M107.67,51.99v-7.26h0.91v1.03c0.22-0.4,0.49-0.7,0.8-0.89c0.32-0.2,0.68-0.3,1.09-0.3
		c0.32,0,0.61,0.06,0.88,0.19c0.27,0.13,0.49,0.29,0.66,0.49c0.17,0.2,0.29,0.47,0.37,0.79c0.08,0.32,0.12,0.82,0.12,1.49v4.46h-1
		v-4.42c0-0.53-0.04-0.92-0.14-1.17c-0.09-0.25-0.23-0.44-0.43-0.57c-0.19-0.13-0.42-0.2-0.67-0.2c-0.48,0-0.87,0.18-1.16,0.54
		s-0.43,0.98-0.43,1.85v3.97H107.67z"/>
	<path style="fill:#231F20;" d="M113.85,52.59l0.98,0.18c0.05,0.39,0.18,0.68,0.41,0.87c0.23,0.19,0.54,0.29,0.95,0.29
		c0.44,0,0.79-0.11,1.06-0.32c0.26-0.21,0.44-0.53,0.54-0.95c0.06-0.26,0.09-0.79,0.09-1.61c-0.22,0.31-0.46,0.55-0.74,0.71
		c-0.27,0.16-0.58,0.24-0.91,0.24c-0.71,0-1.3-0.3-1.77-0.9c-0.54-0.69-0.81-1.62-0.81-2.78c0-0.78,0.12-1.46,0.36-2.04
		c0.24-0.58,0.55-1.01,0.93-1.29c0.38-0.27,0.82-0.41,1.29-0.41c0.35,0,0.67,0.09,0.96,0.26c0.29,0.17,0.55,0.43,0.77,0.77v-0.87
		h0.93V51c0,1.12-0.09,1.91-0.27,2.39c-0.18,0.48-0.48,0.85-0.9,1.13c-0.41,0.28-0.91,0.41-1.5,0.41c-0.77,0-1.36-0.21-1.78-0.62
		C114.04,53.9,113.84,53.32,113.85,52.59z M114.69,48.23c0,0.95,0.16,1.65,0.47,2.09c0.32,0.44,0.7,0.66,1.16,0.66
		c0.46,0,0.84-0.21,1.16-0.64c0.32-0.43,0.48-1.11,0.48-2.05c0-0.91-0.16-1.59-0.49-2.04s-0.73-0.67-1.2-0.67
		c-0.42,0-0.79,0.22-1.11,0.67S114.69,47.35,114.69,48.23z"/>
	<path style="fill:#231F20;" d="M124.33,51.99v-1.07c-0.23,0.41-0.51,0.72-0.82,0.92s-0.67,0.31-1.07,0.31
		c-0.47,0-0.87-0.13-1.2-0.38c-0.33-0.25-0.55-0.57-0.67-0.96c-0.11-0.39-0.17-0.92-0.17-1.59v-4.5h1v4.03
		c0,0.75,0.04,1.25,0.11,1.5s0.21,0.46,0.42,0.61c0.2,0.15,0.43,0.23,0.69,0.23c0.48,0,0.88-0.2,1.19-0.59
		c0.26-0.34,0.4-0.97,0.4-1.88v-3.89h1.01v7.26H124.33z"/>
	<path style="fill:#231F20;" d="M130.7,51.09c-0.34,0.35-0.69,0.62-1.05,0.79c-0.36,0.18-0.74,0.27-1.13,0.27
		c-0.62,0-1.11-0.19-1.48-0.56c-0.37-0.37-0.55-0.88-0.55-1.51c0-0.42,0.09-0.79,0.26-1.11c0.17-0.32,0.41-0.58,0.71-0.76
		c0.3-0.18,0.76-0.32,1.37-0.4c0.82-0.12,1.42-0.26,1.8-0.43l0.01-0.31c0-0.5-0.09-0.85-0.27-1.05c-0.25-0.29-0.64-0.44-1.16-0.44
		c-0.47,0-0.82,0.1-1.05,0.29s-0.4,0.56-0.51,1.1l-0.99-0.16c0.14-0.78,0.43-1.35,0.86-1.7s1.05-0.53,1.85-0.53
		c0.62,0,1.11,0.12,1.47,0.35c0.36,0.24,0.58,0.53,0.67,0.87c0.09,0.35,0.14,0.85,0.14,1.52v1.64c0,1.15,0.02,1.87,0.07,2.17
		c0.04,0.3,0.13,0.59,0.26,0.87h-1.05C130.8,51.74,130.73,51.44,130.7,51.09z M130.62,48.34c-0.37,0.18-0.92,0.34-1.65,0.46
		c-0.42,0.07-0.72,0.16-0.89,0.25c-0.17,0.09-0.3,0.23-0.39,0.4c-0.09,0.17-0.14,0.37-0.14,0.59c0,0.35,0.11,0.62,0.32,0.83
		c0.21,0.21,0.51,0.31,0.89,0.31c0.36,0,0.69-0.09,0.98-0.28c0.29-0.19,0.51-0.44,0.66-0.75c0.15-0.31,0.22-0.77,0.22-1.36V48.34z"
		/>
	<path style="fill:#231F20;" d="M133.01,52.59l0.98,0.18c0.05,0.39,0.18,0.68,0.41,0.87c0.23,0.19,0.54,0.29,0.95,0.29
		c0.44,0,0.79-0.11,1.06-0.32c0.26-0.21,0.44-0.53,0.54-0.95c0.06-0.26,0.09-0.79,0.09-1.61c-0.22,0.31-0.46,0.55-0.74,0.71
		c-0.27,0.16-0.58,0.24-0.91,0.24c-0.71,0-1.3-0.3-1.77-0.9c-0.54-0.69-0.81-1.62-0.81-2.78c0-0.78,0.12-1.46,0.36-2.04
		c0.24-0.58,0.55-1.01,0.93-1.29c0.38-0.27,0.82-0.41,1.29-0.41c0.35,0,0.67,0.09,0.96,0.26c0.29,0.17,0.55,0.43,0.77,0.77v-0.87
		h0.93V51c0,1.12-0.09,1.91-0.27,2.39c-0.18,0.48-0.48,0.85-0.9,1.13c-0.41,0.28-0.91,0.41-1.5,0.41c-0.77,0-1.36-0.21-1.78-0.62
		C133.2,53.9,133,53.32,133.01,52.59z M133.84,48.23c0,0.95,0.16,1.65,0.47,2.09c0.32,0.44,0.7,0.66,1.16,0.66
		c0.46,0,0.84-0.21,1.16-0.64c0.32-0.43,0.48-1.11,0.48-2.05c0-0.91-0.16-1.59-0.49-2.04s-0.73-0.67-1.2-0.67
		c-0.42,0-0.79,0.22-1.11,0.67S133.84,47.35,133.84,48.23z"/>
	<path style="fill:#231F20;" d="M143.66,49.65l1.04,0.16c-0.17,0.77-0.49,1.36-0.94,1.75c-0.45,0.39-1.02,0.59-1.69,0.59
		c-0.84,0-1.53-0.32-2.05-0.96c-0.52-0.64-0.78-1.56-0.78-2.77c0-1.25,0.26-2.21,0.79-2.87c0.53-0.66,1.19-0.99,2-0.99
		c0.77,0,1.41,0.32,1.93,0.97c0.52,0.65,0.77,1.58,0.77,2.81l-0.01,0.33h-4.44c0.04,0.82,0.23,1.43,0.57,1.85
		c0.34,0.41,0.75,0.62,1.23,0.62C142.84,51.14,143.36,50.64,143.66,49.65z M140.34,47.66h3.32c-0.04-0.63-0.18-1.1-0.4-1.41
		c-0.32-0.45-0.74-0.68-1.24-0.68c-0.45,0-0.84,0.19-1.16,0.56C140.55,46.51,140.38,47.02,140.34,47.66z"/>
	<path style="fill:#231F20;" d="M63.39,58.77h1.09v5.79c0,0.97-0.09,1.77-0.28,2.39c-0.19,0.62-0.53,1.11-1.03,1.47
		c-0.5,0.36-1.13,0.54-1.9,0.54c-1.08,0-1.9-0.32-2.43-0.97c-0.54-0.65-0.81-1.79-0.81-3.43v-5.79h1.09v5.78
		c0,0.91,0.07,1.56,0.21,1.97c0.14,0.41,0.37,0.71,0.69,0.93s0.71,0.32,1.17,0.32c0.77,0,1.34-0.22,1.69-0.66s0.52-1.29,0.52-2.56
		V58.77z"/>
	<path style="fill:#231F20;" d="M65.78,66.61l1-0.19c0.06,0.51,0.22,0.89,0.48,1.14c0.26,0.25,0.61,0.37,1.05,0.37
		c0.44,0,0.77-0.11,1.01-0.33c0.24-0.22,0.36-0.49,0.36-0.82c0-0.29-0.1-0.51-0.31-0.67c-0.14-0.11-0.48-0.25-1.03-0.41
		c-0.78-0.24-1.31-0.45-1.57-0.62c-0.26-0.17-0.47-0.39-0.62-0.68c-0.15-0.28-0.22-0.6-0.22-0.96c0-0.62,0.2-1.12,0.59-1.51
		c0.4-0.39,0.95-0.58,1.65-0.58c0.44,0,0.83,0.08,1.17,0.24c0.33,0.16,0.59,0.37,0.77,0.64c0.18,0.27,0.3,0.65,0.37,1.16l-0.98,0.16
		c-0.09-0.79-0.52-1.19-1.29-1.19c-0.44,0-0.76,0.09-0.98,0.26s-0.32,0.4-0.32,0.67c0,0.27,0.1,0.48,0.31,0.63
		c0.12,0.09,0.49,0.24,1.1,0.44c0.83,0.27,1.38,0.48,1.62,0.63c0.25,0.16,0.44,0.37,0.57,0.64c0.14,0.27,0.2,0.59,0.2,0.97
		c0,0.69-0.22,1.25-0.66,1.68c-0.44,0.43-1.04,0.64-1.8,0.64C66.83,68.95,66.01,68.17,65.78,66.61z"/>
	<path style="fill:#231F20;" d="M75.98,66.45l1.04,0.16c-0.17,0.77-0.49,1.36-0.94,1.75c-0.45,0.39-1.02,0.59-1.69,0.59
		c-0.84,0-1.53-0.32-2.05-0.96c-0.52-0.64-0.78-1.56-0.78-2.77c0-1.25,0.26-2.21,0.79-2.87c0.53-0.66,1.19-0.99,2-0.99
		c0.77,0,1.41,0.32,1.93,0.97c0.52,0.65,0.77,1.58,0.77,2.81l-0.01,0.33H72.6c0.04,0.82,0.23,1.43,0.57,1.85
		c0.34,0.41,0.75,0.62,1.23,0.62C75.15,67.94,75.68,67.44,75.98,66.45z M72.66,64.46h3.32c-0.05-0.63-0.18-1.1-0.4-1.41
		c-0.32-0.45-0.74-0.68-1.24-0.68c-0.45,0-0.84,0.19-1.16,0.56S72.69,63.82,72.66,64.46z"/>
	<path style="fill:#231F20;" d="M81.1,65.16c0-1.25,0.26-2.2,0.79-2.84c0.53-0.64,1.19-0.96,2-0.96c0.79,0,1.46,0.32,1.99,0.96
		c0.53,0.64,0.8,1.56,0.8,2.76c0,1.3-0.26,2.27-0.79,2.91c-0.52,0.64-1.19,0.96-2,0.96c-0.8,0-1.46-0.32-1.99-0.96
		C81.37,67.35,81.1,66.4,81.1,65.16z M82.14,65.15c0,0.94,0.17,1.64,0.51,2.1c0.34,0.46,0.77,0.69,1.27,0.69
		c0.47,0,0.88-0.23,1.22-0.7c0.34-0.46,0.51-1.16,0.51-2.09c0-0.94-0.17-1.63-0.51-2.09c-0.34-0.46-0.77-0.69-1.27-0.69
		c-0.48,0-0.89,0.23-1.22,0.69C82.3,63.53,82.14,64.22,82.14,65.15z"/>
	<path style="fill:#231F20;" d="M88.15,68.79v-6.3h-0.9v-0.96h0.9v-0.77c0-0.57,0.06-1,0.18-1.28c0.12-0.28,0.3-0.5,0.54-0.65
		c0.24-0.15,0.55-0.23,0.92-0.23c0.29,0,0.6,0.04,0.95,0.13l-0.15,1.07c-0.21-0.05-0.41-0.07-0.59-0.07c-0.3,0-0.52,0.08-0.65,0.24
		s-0.2,0.46-0.2,0.9v0.67h1.16v0.96h-1.16v6.3H88.15z"/>
	<path style="fill:#231F20;" d="M94.37,68.79V58.77h2.84c0.7,0,1.24,0.06,1.6,0.18c0.48,0.16,0.89,0.45,1.24,0.88
		c0.35,0.42,0.62,0.96,0.82,1.6c0.2,0.65,0.29,1.41,0.29,2.29c0,1.13-0.17,2.1-0.5,2.89c-0.33,0.79-0.76,1.35-1.28,1.68
		c-0.52,0.33-1.2,0.5-2.05,0.5H94.37z M95.46,67.6h1.75c0.71,0,1.24-0.12,1.61-0.35c0.37-0.23,0.65-0.6,0.84-1.11
		c0.26-0.68,0.39-1.49,0.39-2.44c0-1.02-0.14-1.82-0.41-2.4c-0.28-0.58-0.63-0.97-1.06-1.17c-0.29-0.13-0.75-0.2-1.39-0.2h-1.72
		V67.6z"/>
	<path style="fill:#231F20;" d="M102.54,68.79v-7.26h0.91v1.1c0.23-0.51,0.45-0.85,0.64-1.02c0.19-0.17,0.41-0.25,0.65-0.25
		c0.34,0,0.68,0.13,1.03,0.4l-0.34,1.14c-0.25-0.18-0.49-0.27-0.73-0.27c-0.21,0-0.41,0.08-0.59,0.23s-0.3,0.36-0.38,0.63
		c-0.13,0.47-0.19,0.97-0.19,1.5v3.8H102.54z"/>
	<path style="fill:#231F20;" d="M110.26,68.79v-1.07c-0.23,0.41-0.51,0.72-0.82,0.92s-0.67,0.31-1.07,0.31
		c-0.47,0-0.87-0.13-1.2-0.38c-0.33-0.25-0.55-0.57-0.67-0.96c-0.11-0.39-0.17-0.92-0.17-1.59v-4.5h1v4.03
		c0,0.75,0.04,1.25,0.11,1.5s0.21,0.46,0.42,0.61c0.2,0.15,0.43,0.23,0.69,0.23c0.48,0,0.88-0.2,1.19-0.59
		c0.26-0.34,0.4-0.97,0.4-1.88v-3.89h1.01v7.26H110.26z"/>
	<path style="fill:#231F20;" d="M112.55,69.39l0.98,0.18c0.05,0.39,0.18,0.68,0.41,0.87c0.23,0.19,0.54,0.29,0.95,0.29
		c0.44,0,0.79-0.11,1.06-0.32c0.26-0.21,0.44-0.53,0.54-0.95c0.06-0.26,0.09-0.79,0.09-1.61c-0.22,0.31-0.46,0.55-0.74,0.71
		c-0.27,0.16-0.58,0.24-0.91,0.24c-0.71,0-1.3-0.3-1.77-0.9c-0.54-0.69-0.81-1.62-0.81-2.78c0-0.78,0.12-1.46,0.36-2.04
		c0.24-0.58,0.55-1.01,0.93-1.29c0.38-0.27,0.82-0.41,1.29-0.41c0.35,0,0.67,0.09,0.96,0.26c0.29,0.17,0.55,0.43,0.77,0.77v-0.87
		h0.93v6.28c0,1.12-0.09,1.91-0.27,2.39c-0.18,0.48-0.48,0.85-0.9,1.13c-0.41,0.28-0.91,0.41-1.5,0.41c-0.77,0-1.36-0.21-1.78-0.62
		C112.74,70.7,112.54,70.12,112.55,69.39z M113.38,65.03c0,0.95,0.16,1.65,0.47,2.09c0.32,0.44,0.7,0.66,1.16,0.66
		c0.46,0,0.84-0.21,1.16-0.64c0.32-0.43,0.48-1.11,0.48-2.05c0-0.91-0.16-1.59-0.49-2.04s-0.73-0.67-1.2-0.67
		c-0.42,0-0.79,0.22-1.11,0.67S113.38,64.15,113.38,65.03z"/>
	<path style="fill:#231F20;" d="M118.74,66.61l1-0.19c0.06,0.51,0.22,0.89,0.48,1.14c0.26,0.25,0.61,0.37,1.05,0.37
		c0.44,0,0.77-0.11,1.01-0.33c0.24-0.22,0.36-0.49,0.36-0.82c0-0.29-0.1-0.51-0.31-0.67c-0.14-0.11-0.48-0.25-1.03-0.41
		c-0.78-0.24-1.31-0.45-1.57-0.62c-0.26-0.17-0.47-0.39-0.62-0.68c-0.15-0.28-0.22-0.6-0.22-0.96c0-0.62,0.2-1.12,0.59-1.51
		c0.4-0.39,0.95-0.58,1.65-0.58c0.44,0,0.83,0.08,1.17,0.24c0.33,0.16,0.59,0.37,0.77,0.64c0.18,0.27,0.3,0.65,0.37,1.16l-0.98,0.16
		c-0.09-0.79-0.52-1.19-1.29-1.19c-0.44,0-0.76,0.09-0.98,0.26c-0.21,0.17-0.32,0.4-0.32,0.67c0,0.27,0.1,0.48,0.31,0.63
		c0.12,0.09,0.49,0.24,1.1,0.44c0.83,0.27,1.38,0.48,1.62,0.63c0.25,0.16,0.44,0.37,0.57,0.64c0.14,0.27,0.2,0.59,0.2,0.97
		c0,0.69-0.22,1.25-0.66,1.68c-0.44,0.43-1.04,0.64-1.8,0.64C119.8,68.95,118.97,68.17,118.74,66.61z"/>
</g>
</svg>
