<svg xmlns="http://www.w3.org/2000/svg" viewBox="0 0 1685.1 392.4"><path d="M1432.2 0c21 13.7 37.8 34.3 53 54 5.7 4.3 11.3 8.7 17 13 17 21.3 38.4 38.1 55 60 6.3 6 12.7 12 19 18 8 10.6 16.1 19.8 24 31 2.6 3.6 6.3 6.2 8 11 0.3 0 0.7 0 1 0 0-12.3 0-24.7 0-37 -4.9-7.9 1.7-23.9 1-31 -1.3-12.9-1.2-27.2-2-42 -0.3-2.7-0.7-5.3-1-8 3.3-17.1 4.3-34.8 1-52 1-0.3 2-0.7 3-1 3.4-2.2 33.2-2.5 36-2 0.5 1.5 0.7 1.7 1 4 -6.5 9.2-4 29.8-1 42 0.8 3.2 3.1 8.2 2 13 -3 12.7-3 29.7 0 43 1.6 7-1.9 12-3 16 -2 7.5 2.7 28.8 4 36 1.2 6.6-1.6 33.7-3 40 -3.9 17.4-1 39.9-1 59 -0.3 0-0.7 0-1 0 0-0.3 0-0.7 0-1 -31.1-29.3-66-55.6-92-90 -6.3-8.4-16.6-14.6-23-23 -9.6-12.7-20.8-24.8-32-36 -5-4.7-10-9.3-15-14 -5.4-7.8-9.3-16.7-17-22 0 3 0 6 0 9 7.2 11.6-4.3 35.7-1 51 4 18.6 5.3 43.2 5 64 0 7.3 0 14.7 0 22 -2 8.9-4.5 17.6-5 27 -3.8 2.4-6.8 3.1-14 3 -3.4-2.2-12.1-2-17-2 0-0.7 0-1.3 0-2 -11.2-14.8 0.5-46-4-67 -1-4.8-2.8-18.1-2-23 1.2-7.7 6.9-18.5 5-28 -1.2-5.9 0.5-15.9-1-23 -1.2-5.6 0.5-15.2-1-22 -2.4-11.4-2.3-26.1 0-37 -0.3-6.3-0.7-12.7-1-19C1430.9 22.7 1431.6 11.3 1432.2 0z"></path> <path d="M584.2 8c31.1-0.6 62.3 14.9 66 41 -0.7 0.8-1.3 2.2-2 3 -4.9 5.1-15.7 13.1-24 14 -2.5-3-9.3-13.4-12-15 -4.7-2.7-9.5-2.2-15-4 -13-4.2-18.4-4.1-30 3 -3.6 2.2-7.1 2.1-9 6 -4.1 5.2-7.2 15.1-9 22 7 7.7 14 15.3 21 23 6.3 4.1 15.4 1.9 23 5 5.9 2.4 10.7 9.7 16 13 6.7 2 13.3 4 20 6 9 11.7 18 23.3 27 35 0 5.7 0 11.3 0 17 1.1 5.2 5.5 16.5 4 22 -1.3 4.7-7.4 11.7-10 16 -5 8.2-6.5 17.7-12 25 -6.3 8.3-15.2 8.7-26 13 -6 2.4-12.9 7.3-19 9 -6.9 1.9-36.5-0.9-42-3 -9.1-3.4-20.1-18.1-28-24 -2.4-1.8-6.1-2.8-8-5 -1-3.7-2-7.3-3-11 -2.5-6.1-13.5-20.1-11-26 0.3-1 0.7-2 1-3 10.3-2.3 20.7-4.7 31-7 4.5 1.5 5 11.7 7 16 2 4.4 15.1 22.2 20 23 2.9 2 27.9 6 31 4 30.9-10 39.2-56.5 10-75 -5-1.3-10-2.7-15-4 -8.9-3.7-18.1-10.2-26-15 -10.5-6.4-22.6-8.9-32-16 -5.2-3.9-5.3-10.4-8-17 -2.8-6.9-7.9-16.2-10-23 -2.1-6.9 2.5-13.3 4-17 2.3-5.6 2.1-10.8 5-16 3-5.3 9.4-9.3 13-14 2.1-2.8 4-7.3 7-9 6.9-3.9 14.9-3.4 23-6 3.5-1.1 8.5-4 12-5C577.8 8 581.8 9.5 584.2 8z"></path> <path d="M722.2 13c10.1-0.1 20.3 0.6 29 1 0.3 1 0.7 2 1 3 3.4 5.4-0.1 17.6 1 25 2.1 14.1 2 29.9 2 46 0 57 0.9 113.4 0 167 -1.5 0.9-2.9 1.8-4 3 -11 0-22 0-33 0 -1.5-2.8-2-5-2-10 5.2-8.5 2.2-41.8 1-55 -1-10-2-20-3-30 3.5-15.6 5.5-43.2 3-60 0-9.7 0-19.3 0-29 -1.9-13-3-51 3-59C721 14.1 721.5 13.9 722.2 13z"></path> <path d="M1070.2 13c10.7 0.3 21.3 0.7 32 1 2.4 3.8 3.1 6.8 3 14 4.9 7.9-1.6 42 1 54 1.3 13 2.7 26 4 39 -0.5 3.4-4.1 8.6-5 12 -0.7 2.6 0.8 5.9 1 7 0.3 11 0.7 22 1 33 -0.2 24.9-2 52.6-2 80 -2.4 1.3-2.8 1.8-7 2 -4.5 2.9-18.4 1.1-25 1 -4.8-8.5-8.3-43.8-5-59 1.7-7.5 0.7-18.9 1-28 0.9-31-7.2-77.5 0-108C1073.2 44 1063.6 26 1070.2 13z"></path> <path d="M242.2 78c-5.5-13-15.6-19.1-25-28 -4.7-6-9.3-12-14-18 -21.8-15.2-54.8-23.7-91-24 -8.9 6.9-35.9 10.8-48 16 -24 10.3-36.8 28.8-50 50 -1.4 2.3-5.1 5.4-6 8 -0.7 6.3-1.3 12.7-2 19 -1.5 6.3-5.1 14.5-6 20 -1 6.3 1.7 19.9 3 26 0.3 6 0.7 12 1 18 6.7 25.2 19.7 42 33 60 1.3 1.8 1.4 4.6 3 6 6.4 6 17.4 7.4 25 12 6.9 4.2 14.5 10.9 22 14 15.9 6.7 64.6 5.6 83 0 6-1.8 16.5-5.3 22-9 6.3-4.2 10.9-12.4 17-17C251.1 199.4 267.3 137.6 242.2 78zM216.2 149v15c-1.5 3.7-6.7 7.7-9 11 -4.4 6.3-6.7 15.5-12 21 -10.7 11-29.1 18-45 24 -5.6 2.1-16.5 9.6-24 8 -4.5-1-9.8-5.7-14-7h-21c-7.5-2.5-15.6-12.6-21-18 -7.6-7.6-19.5-15.7-24-26 -12.1-27.9-4.7-84.3 11-105 5.4-7.1 35.9-23.4 46-27 4.8-1.7 13.8 0.5 18-2 16.6 0 31.1 0.1 43 5 11.6 4.7 32.9 29.3 42 39 4.2 5.5 2.2 16 5 23 1.8 4.6 6.6 9.6 8 14C221.4 130.8 217.5 143.2 216.2 149z"></path> <path d="M1011.2 110c0-3.3 0-6.7 0-10 -1.7-5.2-6.8-10.9-9-16 -27.4-63.3-86.7-73.3-178-72 -4 9.4 3.9 19 1 31 -5.4 22.3-6.3 63.5-1 88 2.9 13.3-3.1 23.4-5 31 -1.7 6.5 2.9 13.4 4 18 0 16 0 32 0 48 0 5.1-1.1 13.7 1 17 -0.1 7.2 0.9 9.8 3 14 16.7 0 33.3 0 50 0 6.7-1.5 22.2-5.2 28-5 3.3 0.1 11.2 2.6 16 1 8.5-2.8 15.9-11 24-14 5.1-1.9 12.5-0.3 17-3 14.7 0 19.2-14.9 25-24 2.2-3.5 6.3-7 8-11 2.7-6.3 2.6-12.6 6-18 2.7-4.4 8.3-8.9 10-14 0-3.3 0-6.7 0-10C1015.1 143.7 1014.9 126.4 1011.2 110zM971.2 150c-2.6 11.4-4.3 28.9-10 37 -3.2 8.3-24.3 14.1-29 27 -8.9 0.3-48.9 4.9-54 8 -5.6 0.2-13.4 1-16-2 -2.7-5.7 2.7-25.9 0-37 -1.2-4.9-4.7-11.9-3-19 1.7-6.3 3.3-12.7 5-19 -0.7-5.1-4.7-11.3-6-16 -5.4-19.5 0.1-48.6 4-63 1.2-4.5-1.8-10.5 1-15 0.3-1 0.7-2 1-3 2.2-0.4 7.2-0.9 9-2 11.7 1 23.3 2 35 3 4.9 1.7 10.6 7.3 15 10 7.8 4.7 17.4 5.8 25 11 12.3 8.4 15.8 25.1 22 40 0.6 1.5 4.1 6.2 4 8C973.9 126.3 973.2 141.3 971.2 150z"></path> <path d="M1367.2 211c-4.5-10.4-9.9-19.4-14-29 -8.5-19.8-13.3-38.6-24-56 -6.4-10.5-15.4-20.9-20-33 -1.7-8-3.3-16-5-24 -3.1-9.1-9.2-18.4-13-27 -2.1-4.9-1.4-9.8-4-15 -1.5-3-6-6.2-8-9 -3.7-5.1-5.8-12.5-12-15 -3 10.2-10.9 18.6-15 28 -5.1 11.7-6.6 24-12 36 -4.6 10.3-14.2 19.5-20 29 -6.4 10.5-4.5 25.5-10 37 -1.8 3.9-7.3 7-9 11 -1.3 6.7-2.7 13.3-4 20 -2.4 6-8.9 10.6-12 16 -2.7 4.6-1.2 10.4-3 16 -1.5 4.8-5.6 8.2-8 12 -6.1 9.6-10.9 17.5-15 29 -1.5 4.2-6.4 12.9-4 17 0 0.7 0 1.3 0 2 7.7 0.1 28.6 2.9 33 0 6.3-2.2 5.8-7.8 9-13 8.4-13.8 15.7-30.9 24-45 21-4.1 49.1-1 72-1 7 0 21.1-2.1 26 1 6.1 2.3 6.4 10.1 9 16 4 9.1 16.9 40 25 43 2.4 1.7 12.6 1.7 15 0 5.4 0.1 12.1 0.3 16-1C1383.2 238.3 1373 224.2 1367.2 211zM1307.2 165c-8.3 0.1-27.1 2.8-33-1 -13.3 0-26.7 0-40 0 7.6-15.5 12.9-33 20-49 4.8-11 14.3-23.8 16-37 9.6 7.7 13.5 29.4 18 43 1 2.9 5.1 9.9 5 13 -0.7 1.3-1.3 2.7-2 4 0.9 3.2 14.1 20.6 17 23C1307.9 163.3 1307.8 163.5 1307.2 165z"></path> <path d="M453.2 177c-1.4-6.2 0.1-10.9-2-16 -5-12-26-34.4-41-36 4.3-5.8 14.4-8.8 17-16 0.3-4.7 0.7-9.3 1-14 1.2-4.9 6.9-18.7 6-23 -1.4-6.8-11.1-29.3-15-35 -3.7-5.5-12.3-8.4-18-12 -3.4-2.1-7-6.7-11-8 -4.3 0-8.7 0-13 0 -19.3-4.3-43.8-2.8-66-5 -3.4 7.2 5 11.4 3 21 -1.1 5.1-5.5 12-7 18 -2.6 10.5 4.6 19.7 3 29 -3.2 18.5-3.9 41.9 0 60 -0.7 13-1.3 26-2 39 0 6 0 12 0 18 -1.4 6.1-5.6 17.8-4 25 0.4 1.9 2.5 6.1 3 8 1.5 6-0.8 12.6 2 17 -0.1 6.3 0.9 7.6 3 11 15.3 0.3 30.7 0.7 46 1 2.9 0 8.7 1.2 10 1 25.4-3.9 57.6-11.5 70-29 6-11 12-22 18-33C458.1 192 454.3 181.9 453.2 177zM346.2 55c0-4.8 0.6-6.3 2-9 25.5 1.5 37.9 5.9 45 27 1.6 4.7 4.9 12.3 2 19 -0.3 0.7-8.5 15.5-9 16 -4.1 4.4-12.2 5.3-17 9 -5.4 0.1-15.5 1.3-19-1 -2.2-3.2-0.8-7.5-2-12C346.1 95.8 342.8 60.2 346.2 55zM410.2 205c-3.9 6.3-12.2 12.8-20 15 -10.5 3-27.2-3.2-36 2 -4.5-0.3-4.8-1.1-8-2 0-12.9-2.8-23.8 0-37 0.7-3.4 2.3-12.1 1-17 -1.5-5.8-2.2-8.1-2-16 12-0.3 24-0.7 36-1 5 1.6 23.1 11.3 26 15C415 173.9 416.5 194.9 410.2 205z"></path> <path d="M1673.3 12.5c2 0 3.9 0.5 5.8 1.5 1.9 1 3.4 2.5 4.4 4.4 1.1 1.9 1.6 3.9 1.6 5.9 0 2-0.5 4-1.6 5.9 -1 1.9-2.5 3.3-4.4 4.4 -1.9 1-3.8 1.6-5.9 1.6 -2 0-4-0.5-5.9-1.6 -1.9-1-3.3-2.5-4.4-4.4 -1-1.9-1.6-3.8-1.6-5.9 0-2.1 0.5-4 1.6-5.9 1.1-1.9 2.5-3.3 4.4-4.4C1669.4 13 1671.4 12.5 1673.3 12.5zM1673.3 14.4c-1.7 0-3.3 0.4-4.8 1.3 -1.6 0.8-2.8 2.1-3.7 3.6 -0.9 1.6-1.3 3.2-1.3 4.9 0 1.7 0.4 3.3 1.3 4.9 0.9 1.6 2.1 2.8 3.6 3.6 1.6 0.9 3.2 1.3 4.9 1.3 1.7 0 3.3-0.4 4.9-1.3 1.6-0.9 2.8-2.1 3.6-3.6 0.9-1.6 1.3-3.2 1.3-4.9 0-1.7-0.4-3.4-1.3-4.9 -0.9-1.6-2.1-2.8-3.7-3.6C1676.6 14.8 1675 14.4 1673.3 14.4zM1668.2 30.8V18.1h4.4c1.5 0 2.6 0.1 3.2 0.4 0.7 0.2 1.2 0.6 1.6 1.2 0.4 0.6 0.6 1.2 0.6 1.9 0 0.9-0.3 1.7-1 2.4 -0.7 0.7-1.5 1.1-2.6 1.2 0.4 0.2 0.8 0.4 1.1 0.7 0.5 0.5 1.1 1.3 1.9 2.5l1.5 2.5h-2.5l-1.1-2c-0.9-1.6-1.6-2.6-2.1-3 -0.4-0.3-0.9-0.4-1.6-0.4h-1.2v5.4H1668.2zM1670.2 23.6h2.5c1.2 0 2-0.2 2.4-0.5 0.4-0.4 0.6-0.8 0.6-1.4 0-0.4-0.1-0.7-0.3-1 -0.2-0.3-0.5-0.5-0.9-0.7 -0.4-0.1-1.1-0.2-2.1-0.2h-2.3V23.6z"></path> </svg>