<svg xmlns="http://www.w3.org/2000/svg" viewBox="0 0 659 639.3"><path d="M326.6 4.8C325.1 1.6 322.1 0 319.1 0c-3 0-6 1.6-7.5 4.8L206.5 231l105.1 226.3c1.5 3.2 4.5 4.8 7.5 4.8 3 0 6-1.6 7.5-4.8l105.1-226.2L326.6 4.8zM319.1 359.9L259.2 231l59.9-128.9 59.9 128.9L319.1 359.9z"></path><path d="M25.8 500.9H1.8c-1 0-1.8 0.8-1.8 1.8v61.4c0 0.9 0.7 1.8 1.8 1.8H12.7c0.9 0 1.8-0.8 1.8-1.8v-21.8h11.4c11.3 0 20.7-9.4 20.7-20.8C46.5 510.2 37.2 500.9 25.8 500.9zM24.9 528.7H14.5v-14.2h10.5c4 0 7.3 3 7.3 6.9C32.2 525.6 28.9 528.7 24.9 528.7z"></path><path d="M120.9 520.9c0-11-9.1-20-20.2-20h-27.7c-1 0-1.8 0.8-1.8 1.8v61.4c0 0.9 0.7 1.8 1.8 1.8h11c0.9 0 1.8-0.8 1.8-1.8v-23.6h6.4l12.3 24.6c0.2 0.4 0.7 0.8 1.5 0.8h12.3c1.6 0 2.2-1.5 1.6-2.7l-12.7-23.5C115.2 536.3 120.9 529.5 120.9 520.9zM99.5 528.6H85.8v-14.5h13.7c3.8 0 7 3.2 7 7.1C106.5 525.1 103.3 528.6 99.5 528.6z"></path><path d="M147.1 565.8h11.1c0.9 0 1.8-0.8 1.8-1.8v-61.3c0-0.9-0.8-1.8-1.8-1.8h-11.1c-0.9 0-1.8 0.8-1.8 1.8v61.4C145.3 564.9 146.1 565.8 147.1 565.8z"></path><path d="M245.3 500.9h-12.3c-0.7 0-1.4 0.6-1.6 1l-15.3 33.8h-0.6l-15.3-33.8c-0.2-0.5-0.8-1-1.6-1h-12.3c-1.4 0-2.1 1.2-1.6 2.4l28.9 62.4c0.3 0.6 0.8 1 1.6 1h0.9c0.7 0 1.3-0.5 1.6-1l29.1-62.4C247.4 502.1 246.7 500.9 245.3 500.9z"></path><path d="M376.3 500.9h-41.1c-1 0-1.8 0.8-1.8 1.8v10.1c0 0.9 0.7 1.8 1.8 1.8h13.3v49.5c0 0.9 0.8 1.8 1.8 1.8h11.1c0.9 0 1.8-0.8 1.8-1.8v-49.5h13.3c1 0 1.8-0.8 1.8-1.8v-10.1C378 501.8 377.3 500.9 376.3 500.9z"></path><path d="M442.8 500.9h-38.4c-1 0-1.8 0.8-1.8 1.8v61.4c0 0.9 0.7 1.8 1.8 1.8h38.4c1 0 1.8-0.8 1.8-1.8v-10.1c0-0.9-0.7-1.8-1.8-1.8h-25.7v-12.5h21.1c0.9 0 1.8-0.7 1.8-1.8v-10.1c0-0.9-0.8-1.8-1.8-1.8h-21.1v-11.5h25.7c1 0 1.8-0.8 1.8-1.8v-10.1C444.6 501.8 443.9 500.9 442.8 500.9z"></path><path d="M160.4 573.5H137.8c-0.9 0-1.7 0.8-1.7 1.8v61.4c0 0.9 0.7 1.8 1.7 1.8h22.6c17.9 0 32.5-14.5 32.5-32.5C192.9 588.1 178.3 573.5 160.4 573.5zM159.5 624.7h-8.9v-37.5h8.9c10.5 0 18.1 8.3 18.1 18.7C177.6 616.4 170 624.7 159.5 624.7z"></path><path d="M230.3 573.5h-11.1c-0.9 0-1.8 0.8-1.8 1.8v61.4c0 0.9 0.8 1.8 1.8 1.8h11.1c0.9 0 1.8-0.8 1.8-1.8v-61.3C232.1 574.4 231.3 573.5 230.3 573.5z"></path><path d="M357.3 573.5h-11.1c-0.9 0-1.8 0.8-1.8 1.8v61.4c0 0.9 0.8 1.8 1.8 1.8h11.1c0.9 0 1.8-0.8 1.8-1.8v-61.3C359 574.4 358.2 573.5 357.3 573.5z"></path><path d="M408.7 599c-7.3-3-10.1-5.5-10.1-9 0-2.5 2.5-4.7 5.8-4.7 5.7 0 12.4 5.1 13.3 5.6 0.8 0.7 2.5-0.2 3.2-1.2l4.7-7.1c0.4-0.6 0.6-2.3-0.5-3 -2.8-2-10.2-6.9-19.8-6.9 -14.3 0-21.4 9.3-21.4 18.4 0 11.1 10 17.3 18 20.5 6.3 2.5 9.5 5.5 9.5 9.4 0 3.2-2.7 5.6-6.4 5.6 -6.1 0-12.8-4.9-13.2-5.1 -0.6-0.5-2.4-0.6-3.1 0.6l-4.3 7.7c-0.7 1.3-0.5 1.7 0.5 2.6 2.1 2.1 8.8 7.1 20.9 7.1 13.6 0 21.9-9.6 21.9-19.2C427.4 607.5 415.9 601.9 408.7 599z"></path><path d="M465 573.5h-11.1c-0.9 0-1.8 0.8-1.8 1.8v61.4c0 0.9 0.8 1.8 1.8 1.8H465c0.9 0 1.8-0.8 1.8-1.8v-61.3C466.8 574.4 465.9 573.5 465 573.5z"></path><path d="M524.5 572.6c-18.5 0-33.3 14.9-33.3 33.5 0 18.5 14.7 33.3 33.3 33.3 18.5 0 33.4-14.7 33.4-33.3C557.9 587.5 543.1 572.6 524.5 572.6zM524.5 624.5c-10.1 0-18.4-8.3-18.4-18.4 0-10.2 8.3-18.6 18.4-18.6 10.2 0 18.5 8.4 18.5 18.6C543.1 616.2 534.7 624.5 524.5 624.5z"></path><path d="M636.4 573.5H625.3c-1 0-1.8 0.8-1.8 1.8v32.9h-0.1l-37-35.6h-2.3c-0.9 0-1.8 0.8-1.8 1.7l0.1 62.4c0 0.9 0.8 1.8 1.8 1.8h11c1 0 1.8-0.8 1.8-1.8v-34.6h0.1l36.6 36.8c0.2 0.2 0.9 0.5 1.2 0.5h1.5c0.9 0 1.8-0.7 1.8-1.7v-62.4C638.2 574.4 637.4 573.5 636.4 573.5z"></path><polygon points="656.9 573.5 655 579.1 653.2 573.5 651 573.5 651 580.8 652.5 580.8 652.5 575.3 654.3 580.8 655.7 580.8 657.5 575.3 657.5 580.8 659 580.8 659 573.5 "></polygon><polygon points="643.5 575 645.9 575 645.9 580.8 647.5 580.8 647.5 575 649.9 575 649.9 573.5 643.5 573.5 "></polygon><path d="M288.2 500c-0.9 0-1.8 0.5-2.2 1.4l-31.7 68.2 31.7 68.2c0.5 1 1.4 1.4 2.3 1.4 0.9 0 1.8-0.5 2.3-1.4l31.7-68.2 -31.7-68.2C290.1 500.5 289.1 500 288.2 500zM288.2 608.5l-18.1-38.9 18.1-38.9 18.1 38.9L288.2 608.5z"></path></svg>