<svg version="1.1" id="Layer_1" xmlns="http://www.w3.org/2000/svg" xmlns:xlink="http://www.w3.org/1999/xlink" x="0px" y="0px"
	 width="100%" viewBox="0 0 400 264" enable-background="new 0 0 400 264" xml:space="preserve">
<path fill="#000000" opacity="1.000000" stroke="none" 
	d="
M252.000000,265.000000 
	C168.000031,265.000000 84.500061,265.000000 1.000067,265.000000 
	C1.000045,177.000061 1.000045,89.000122 1.000022,1.000138 
	C134.333221,1.000092 267.666443,1.000092 400.999756,1.000046 
	C400.999817,88.999855 400.999817,176.999710 400.999908,264.999786 
	C351.500000,265.000000 302.000000,265.000000 252.000000,265.000000 
M53.994999,147.972366 
	C54.326622,147.523697 54.658249,147.075027 55.980270,146.710464 
	C57.495071,147.805908 58.946949,149.737396 60.535202,149.856934 
	C68.915817,150.487717 77.328506,150.749130 85.734505,150.970520 
	C94.767021,151.208405 103.782372,150.196121 112.846176,150.919571 
	C121.674683,151.624207 130.555176,151.877197 139.413330,151.887192 
	C142.019333,151.890121 144.627045,150.391296 147.233963,149.580704 
	C147.092224,148.720779 146.950485,147.860840 146.808746,147.000916 
	C134.714783,147.000916 122.620636,147.031952 110.527077,146.961716 
	C109.014603,146.952927 107.505241,146.408997 106.810036,145.996567 
	C111.566498,144.680344 116.322968,143.364105 122.005722,142.016708 
	C128.524689,142.350922 135.042084,142.829025 141.563919,142.900574 
	C142.903473,142.915268 144.259705,141.409912 145.608261,140.605179 
	C145.403290,139.968567 145.198334,139.331955 144.993362,138.695343 
	C140.337402,138.406219 135.681442,138.117096 131.313080,137.319672 
	C132.247330,136.662720 133.181580,136.005768 134.937820,135.159561 
	C137.531662,135.476151 140.125519,135.792740 142.719360,136.109329 
	C143.026230,135.556366 143.333084,135.003418 143.639954,134.450455 
	C142.428101,133.554123 141.216248,132.657791 140.331955,131.207672 
	C141.382294,130.142029 142.408676,129.051529 143.486526,128.014465 
	C161.457199,110.723732 166.329834,89.294769 160.689377,65.963341 
	C156.113525,47.035446 144.073624,33.134678 125.876122,24.903654 
	C109.778450,17.622406 93.690567,16.755411 77.255615,23.395761 
	C66.417816,27.774649 57.611427,34.247017 50.017975,43.604748 
	C41.229416,54.435257 37.262154,66.391609 36.121433,79.617592 
	C35.247223,89.753517 38.004124,99.527893 40.778706,109.744232 
	C38.529404,113.437317 36.216164,117.093216 34.042522,120.830299 
	C26.872089,133.158279 19.461626,145.360580 12.750233,157.935043 
	C9.911537,163.253632 4.373466,168.010071 7.760007,175.613525 
	C8.757591,177.853302 9.056212,179.974182 11.654540,179.902496 
	C14.224797,179.831589 16.600889,179.238037 17.107578,175.640793 
	C17.840891,170.434601 19.274673,165.327057 20.409641,160.177429 
	C20.660614,160.261642 20.911587,160.345856 21.162560,160.430069 
	C20.306774,190.815918 19.450991,221.201767 18.593031,251.664810 
	C22.143324,251.664810 25.019629,251.664810 27.670155,251.664810 
	C28.463419,240.152679 29.697407,229.019653 29.896994,217.868103 
	C30.257572,197.721527 30.013033,177.563843 29.973562,157.410904 
	C29.970732,155.966278 30.106457,153.866074 29.273588,153.198166 
	C26.496540,150.971130 28.199997,149.200180 29.304276,147.245102 
	C30.034863,145.951599 30.775539,144.663788 31.640285,143.148041 
	C32.198555,166.246460 32.746803,188.930145 33.299774,211.809387 
	C34.623661,211.809387 36.061226,211.809387 38.305454,211.809387 
	C37.781048,196.908463 37.261280,182.139511 36.710247,166.481995 
	C38.666664,167.220001 39.988300,167.452591 40.970909,168.157654 
	C42.155033,169.007278 43.051235,170.258163 45.019188,172.334732 
	C45.019188,163.164215 45.455677,155.526779 44.912739,147.959610 
	C44.173241,137.652786 42.925293,127.399857 45.681450,117.025665 
	C46.104752,117.057892 46.528053,117.090118 47.095901,117.614052 
	C47.392857,117.746574 47.689816,117.879097 48.184460,118.738373 
	C48.177521,119.486107 48.170582,120.233833 48.009106,121.838455 
	C48.818634,131.150040 49.628166,140.461624 50.497124,150.456757 
	C51.576881,149.462631 52.310421,148.787277 53.994999,147.972366 
M382.579498,139.252823 
	C383.779480,140.741150 384.979462,142.229477 385.970825,143.459030 
	C391.208252,141.311096 390.836731,136.963547 390.926636,133.120697 
	C391.139862,124.007607 390.748627,114.876808 391.093689,105.771805 
	C391.280548,100.840477 389.141388,97.971161 384.991241,96.188179 
	C380.867584,94.416565 376.489960,93.161469 372.536469,91.084511 
	C365.282196,87.273499 358.257751,83.024948 351.016174,78.095306 
	C351.016174,76.493454 351.016174,74.891609 351.016174,73.301064 
	C349.325653,73.030098 348.061981,72.827553 346.464386,72.112053 
	C346.524719,70.905579 346.585022,69.699097 346.698822,67.423050 
	C345.672455,67.168922 343.253082,65.694519 341.817017,66.355728 
	C332.174866,70.795181 322.171356,74.853302 313.481720,80.787430 
	C309.141418,83.751396 305.076843,85.911385 300.013733,86.050400 
	C300.013733,81.777748 300.013733,77.505089 300.013733,73.273399 
	C295.716705,73.273399 291.978027,73.273399 287.916779,73.273399 
	C287.916779,80.017204 287.916779,86.488068 287.304932,93.262383 
	C286.819061,93.705994 286.365967,94.193336 285.841888,94.585976 
	C282.843964,96.832153 279.742432,100.124039 278.120117,93.258018 
	C277.950500,92.540100 275.464478,92.369492 274.005035,91.019867 
	C274.005035,85.097191 274.005035,79.174515 274.005035,73.269806 
	C269.398621,73.269806 265.335236,73.269806 261.046478,73.269806 
	C261.046478,77.992973 261.046478,82.448349 260.369049,86.951889 
	C259.369568,86.512398 258.370087,86.072914 257.343353,85.621437 
	C258.127106,84.441391 258.810883,83.411903 259.494659,82.382423 
	C259.287750,82.003754 259.080811,81.625084 258.873901,81.246422 
	C254.966370,82.820679 251.058853,84.394943 247.014847,85.047829 
	C247.014847,81.119858 247.014847,77.191887 247.014847,73.240875 
	C242.426407,73.240875 238.365768,73.240875 234.125122,73.240875 
	C234.125122,80.253304 234.125122,87.024475 233.421082,93.995201 
	C230.943146,95.949974 228.465195,97.904747 225.060516,99.996254 
	C218.145935,99.996254 211.231354,99.996254 203.959915,99.996254 
	C203.959915,90.808968 203.959915,82.091644 203.959915,73.191162 
	C199.867081,73.191162 196.141403,73.191162 191.845856,73.191162 
	C191.845856,89.916603 191.845856,106.458328 191.211090,123.021095 
	C190.640427,123.208260 189.560364,123.520020 189.571335,123.564911 
	C190.864594,128.852249 184.210922,131.567551 185.221191,136.781403 
	C185.243179,136.894958 183.663910,137.153488 183.007599,137.601974 
	C181.988434,138.298401 181.120789,139.216599 178.796112,141.272614 
	C185.460281,143.501205 190.794327,146.178894 196.363968,146.824799 
	C199.917160,147.236862 203.708313,147.793823 207.951019,146.501923 
	C214.586533,144.481384 222.132645,145.610382 229.250305,144.947052 
	C232.804550,144.615829 236.221344,142.893768 239.778687,142.488083 
	C243.376495,142.077805 247.077087,142.406219 250.722137,142.604568 
	C260.464447,143.134735 270.203461,143.733078 279.938965,144.377213 
	C284.509674,144.679642 290.085052,143.669693 293.371948,145.925552 
	C297.315277,148.631912 300.618866,147.035156 303.725708,146.706543 
	C311.698181,145.863266 319.477386,143.073303 327.448883,142.375076 
	C334.579315,141.750534 341.862732,142.891556 349.079742,143.230743 
	C354.911896,143.504837 360.922577,144.720505 366.524994,143.704269 
	C371.368408,142.825745 377.397583,144.316162 381.517578,139.003754 
	C381.684235,138.963470 381.850922,138.923187 382.579498,139.252823 
M58.498367,252.000290 
	C64.908882,251.666962 71.316010,251.226868 77.730637,251.022781 
	C90.590286,250.613678 103.453506,250.101837 116.316261,250.072632 
	C126.839455,250.048737 137.370529,251.058655 147.886322,250.886993 
	C158.885391,250.707428 169.878448,249.761688 180.849350,248.851898 
	C181.980148,248.758148 184.040924,245.947205 183.798233,245.554794 
	C182.525696,243.497269 180.956238,240.768066 178.932266,240.174759 
	C168.729828,237.184052 158.289810,238.559586 147.816116,238.794571 
	C121.924774,239.375443 96.001823,239.542068 70.123901,237.654495 
	C64.232094,237.224731 58.367191,235.978851 52.475342,238.888092 
	C45.755684,242.206116 38.503452,244.033432 30.828405,243.025406 
	C30.270994,242.952194 29.676418,243.161957 28.403252,243.334412 
	C29.955746,246.530533 31.241699,249.177917 32.611839,251.998627 
	C40.856731,251.998627 49.177864,251.998627 58.498367,252.000290 
M89.526054,215.001282 
	C86.621811,215.319412 83.711899,215.946716 80.814476,215.893509 
	C74.082802,215.769882 67.358238,215.291397 60.628315,215.017731 
	C58.953274,214.949615 57.102093,215.596405 55.618286,215.084473 
	C49.958900,213.131866 45.875484,214.205078 41.556095,219.745804 
	C43.738914,220.877701 45.727833,222.677582 47.873631,222.889557 
	C57.491550,223.839752 67.145988,224.575958 76.803772,224.905960 
	C82.204445,225.090500 87.640823,224.002594 93.055145,224.059174 
	C107.809723,224.213394 122.559837,224.757828 137.314240,224.979050 
	C147.475525,225.131409 157.641327,225.047531 167.804489,224.978577 
	C172.186295,224.948853 176.566574,224.690018 180.947540,224.535263 
	C181.013672,224.004089 181.079819,223.472931 181.145950,222.941772 
	C178.831253,221.295197 176.709900,218.741287 174.160110,218.197876 
	C169.395370,217.182419 164.386627,217.204529 159.471024,217.025894 
	C148.053650,216.610977 136.631363,216.330368 125.210907,216.001160 
	C113.630043,215.667313 102.048965,215.340454 89.526054,215.001282 
M87.663147,196.998016 
	C73.869064,196.998016 60.074989,196.998016 46.092373,196.998016 
	C45.958138,197.964478 45.729340,199.611755 45.444298,201.663971 
	C46.783325,201.484543 47.739403,201.227798 48.689293,201.248962 
	C58.790871,201.473892 68.890190,201.827805 78.992630,201.979874 
	C93.956047,202.205109 108.924950,202.144943 123.885033,202.488373 
	C137.365021,202.797836 150.840607,203.398849 164.308655,204.063522 
	C168.189590,204.255051 170.348053,202.572800 172.034286,198.666290 
	C169.071655,197.718765 166.376541,196.142883 163.661453,196.107697 
	C149.228653,195.920715 134.790253,196.064316 120.355064,196.216370 
	C115.423767,196.268311 110.498627,196.782013 105.566322,196.895386 
	C99.862648,197.026505 94.154175,196.948685 87.663147,196.998016 
M341.525360,156.000519 
	C335.455505,156.630157 330.179718,158.701706 326.959167,164.289551 
	C320.403015,175.664886 326.600525,187.573746 339.996521,190.084854 
	C351.324799,192.208374 361.320190,180.402176 358.169312,169.249329 
	C355.806793,160.887039 350.501770,157.015274 341.525360,156.000519 
M294.999908,157.002243 
	C290.077179,157.002243 285.154419,157.002243 280.247925,157.002243 
	C280.247925,168.270187 280.247925,178.985352 280.247925,189.979889 
	C284.944611,189.979889 289.472412,190.487534 293.836456,189.858704 
	C300.094086,188.957016 305.679779,186.352005 307.975159,179.732117 
	C311.597198,169.286133 307.401581,161.522781 294.999908,157.002243 
M134.481522,187.062973 
	C136.046738,187.375671 137.607819,187.931519 139.177902,187.958160 
	C145.335831,188.062729 151.503143,188.157730 157.652237,187.901993 
	C159.441284,187.827560 162.692825,186.549637 162.681839,185.864929 
	C162.634628,182.917694 160.107590,182.990738 157.707932,182.953644 
	C141.006073,182.695511 124.306084,182.319839 107.605194,181.997482 
	C89.875504,181.655258 72.145851,181.307877 54.415348,181.012695 
	C49.634209,180.933090 49.016701,182.100967 51.161530,186.365936 
	C52.995888,186.239136 54.730171,185.976334 56.456005,186.023361 
	C66.867233,186.307007 77.275841,186.685394 87.686638,186.986359 
	C100.415581,187.354324 113.144699,187.740326 125.876442,187.966705 
	C128.437180,188.012238 131.010010,187.377609 134.481522,187.062973 
M215.595383,185.936493 
	C219.744553,178.783524 217.806198,173.447510 210.125519,170.992188 
	C207.543167,170.166672 204.862167,169.612518 202.352112,168.616989 
	C201.388687,168.234863 200.194122,166.990417 200.159058,166.097504 
	C200.119827,165.097946 201.038635,163.692123 201.953293,163.088394 
	C205.673615,160.632797 208.683533,162.193298 211.450882,167.774963 
	C213.225342,167.774963 214.999802,167.774963 216.758591,167.774963 
	C217.174515,159.843033 210.055923,154.202316 202.466141,156.216309 
	C196.273865,157.859467 192.863800,161.481155 192.999695,166.270233 
	C193.139145,171.183517 196.741470,174.607132 203.023544,176.032486 
	C205.046371,176.491440 207.042969,177.200241 208.941681,178.042450 
	C212.314499,179.538528 211.551102,181.933182 209.125549,183.134628 
	C206.061676,184.652267 201.920288,185.641785 199.840195,182.047897 
	C197.688095,178.329544 195.159027,178.819336 192.058289,179.301865 
	C192.258453,184.575363 194.620010,188.822937 199.416077,189.582764 
	C204.660202,190.413559 210.729080,191.909668 215.595383,185.936493 
M371.690979,175.999619 
	C373.728058,176.437225 375.928711,176.543610 377.740082,177.438232 
	C378.805237,177.964310 379.925507,179.826431 379.787811,180.934387 
	C379.649445,182.048080 378.155823,183.462265 376.952576,183.889145 
	C372.905396,185.324905 368.897400,183.196625 367.395538,179.290405 
	C365.259155,179.290405 363.184021,179.290405 361.088623,179.290405 
	C361.807159,186.580841 365.904114,191.013382 376.633728,190.049316 
	C381.388428,189.622116 386.553284,185.874039 386.940582,181.570145 
	C387.308533,177.481110 385.372162,172.554672 379.551117,170.999329 
	C376.937042,170.300873 374.222046,169.840836 371.753693,168.797516 
	C370.594727,168.307648 369.418304,166.779083 369.206116,165.555450 
	C369.088654,164.877914 370.804504,163.502426 371.936310,163.055679 
	C376.304840,161.331436 378.530365,162.634018 380.769043,167.805878 
	C382.440216,167.805878 384.061066,167.805878 385.637207,167.805878 
	C387.053131,161.011627 382.207520,157.109222 376.506226,156.051041 
	C370.243927,154.888763 364.225433,158.552292 362.974854,163.978638 
	C361.625122,169.835251 363.720459,173.021774 371.690979,175.999619 
M246.000061,177.085571 
	C247.528488,185.926239 252.867493,191.179260 260.116760,190.974976 
	C266.794861,190.786774 273.227783,185.713562 273.845337,178.909775 
	C274.498749,171.710938 273.992004,164.406830 273.992004,157.294556 
	C271.323730,157.294556 269.261688,157.294556 267.006012,157.294556 
	C267.006012,163.723755 267.030365,169.859619 266.998840,175.995209 
	C266.970062,181.595642 264.939484,183.930801 260.137878,183.999329 
	C255.073868,184.071594 253.020370,181.720184 253.003479,175.767395 
	C252.985779,169.526093 252.999512,163.284683 252.999512,157.171173 
	C250.334152,157.171173 248.382111,157.171173 245.999954,157.171173 
	C245.999954,163.611145 245.999954,169.889053 246.000061,177.085571 
M81.581741,159.998795 
	C84.914520,160.004913 88.255905,159.857132 91.578621,160.043076 
	C108.329903,160.980545 125.073845,162.052704 141.828339,162.924026 
	C143.476532,163.009720 145.929138,161.101639 146.730850,161.735291 
	C150.946274,165.067154 152.620224,161.838898 155.928284,158.204147 
	C120.838264,156.864456 86.951996,155.570724 52.687115,154.262543 
	C53.357281,156.852280 53.408768,158.704163 57.037594,158.697220 
	C64.896591,158.682159 72.757210,159.515274 81.581741,159.998795 
M201.030136,36.279388 
	C199.024399,32.992958 197.126236,29.508411 192.240936,31.405642 
	C192.240936,40.589104 192.240936,49.664417 192.240936,58.762779 
	C194.220673,58.762779 195.955444,58.762779 198.083862,58.762779 
	C198.083862,53.173119 198.083862,47.805954 198.083862,41.859272 
	C200.793228,44.918873 203.039536,47.455544 205.449188,50.176685 
	C207.433548,48.006031 209.246765,46.022572 211.411026,43.655109 
	C214.769516,48.491615 211.751923,54.058071 213.395340,58.716904 
	C215.287704,58.716904 217.022659,58.716904 218.801605,58.716904 
	C218.801605,49.348412 218.801605,40.263985 218.801605,31.093700 
	C210.388702,29.972664 209.876846,38.278252 205.546860,41.297497 
	C204.302765,39.983643 202.855103,38.454815 201.030136,36.279388 
M59.726051,170.999420 
	C73.543526,171.671265 87.355980,172.484619 101.179878,172.975693 
	C115.401031,173.480865 129.634979,173.616547 143.859833,174.032669 
	C148.275177,174.161835 152.678040,174.694992 157.089706,174.998444 
	C157.675247,175.038727 158.279083,174.813339 158.730194,174.735794 
	C158.730194,173.016418 158.730194,171.618118 158.730194,170.568848 
	C142.330063,169.711288 126.221237,168.647339 110.094917,168.085724 
	C92.678802,167.479218 75.246010,167.356949 57.821815,166.964523 
	C56.763218,166.940674 55.732864,166.264771 54.659660,166.131439 
	C53.392796,165.974014 51.753033,165.601852 50.908577,166.207001 
	C50.135841,166.760773 50.207573,168.492966 49.938293,169.580200 
	C53.345413,170.124542 56.064705,170.558990 59.726051,170.999420 
M258.998596,30.999735 
	C257.743408,30.999735 256.488190,30.999735 255.250183,30.999735 
	C255.250183,40.589817 255.250183,49.682178 255.250183,58.749306 
	C257.237000,58.749306 258.975433,58.749306 261.127319,58.749306 
	C261.127319,53.165180 261.127319,47.818230 261.127319,41.472725 
	C263.832703,45.751102 265.615723,49.398098 268.170807,52.384560 
	C270.859497,55.527191 272.462952,61.207577 278.785400,58.526756 
	C278.785400,49.475010 278.785400,40.381657 278.785400,31.212481 
	C276.825226,31.212481 275.086060,31.212481 272.955322,31.212481 
	C272.955322,36.783325 272.955322,42.157631 272.955322,48.766541 
	C271.820618,47.160210 271.416138,46.561832 270.985870,45.982601 
	C267.277313,40.990116 263.564148,36.001095 258.998596,30.999735 
M224.098038,51.940067 
	C230.016983,62.077587 240.944305,61.506550 246.901764,56.509853 
	C253.054047,51.349766 253.684891,42.340389 249.000259,35.881577 
	C245.366196,30.871210 236.186523,29.262291 229.940292,32.540943 
	C223.574554,35.882313 221.136337,43.503059 224.098038,51.940067 
M384.997986,49.131790 
	C383.517365,53.576107 379.783966,55.108284 376.087860,53.718742 
	C373.577728,52.775078 370.951019,49.641838 370.239960,46.988403 
	C369.125885,42.831078 370.010437,38.912403 375.249512,36.817783 
	C379.568756,35.090919 381.487183,37.499096 384.170959,39.592896 
	C385.927887,40.963593 388.154266,41.732548 390.625641,43.005512 
	C390.916656,35.491974 386.122101,31.075283 379.108459,31.000454 
	C368.425537,30.886475 363.876801,35.393620 364.006622,46.038097 
	C364.126221,55.844257 370.763428,59.716831 378.605286,59.909332 
	C385.430725,60.076885 390.949982,54.288296 390.564026,47.952892 
	C388.781525,48.078072 386.996918,48.203400 384.997986,49.131790 
M326.991302,45.487698 
	C322.608459,43.515034 318.225647,41.542374 313.739471,39.523197 
	C316.936951,35.385445 321.608490,34.699165 322.810303,38.141598 
	C324.181000,42.067738 326.452820,40.847908 328.905579,40.712875 
	C328.935089,33.078705 325.847748,30.576700 316.989258,31.032677 
	C312.959198,31.240116 309.567841,32.783329 309.043549,37.342613 
	C308.366089,43.233604 310.148682,45.677227 315.208038,47.035385 
	C318.298401,47.864979 321.296295,49.039124 324.738190,50.193508 
	C321.338135,54.100689 316.093658,55.448784 314.818878,53.025360 
	C312.940155,49.453838 310.352692,49.855320 307.392365,50.159084 
	C308.876129,56.345997 309.446594,57.048222 314.768127,59.280895 
	C317.936523,60.610210 325.921844,59.385017 327.507599,56.863319 
	C329.671844,53.421661 331.053131,49.648262 326.991302,45.487698 
M299.029022,54.030445 
	C300.474030,58.140614 302.959442,60.393009 307.761566,58.629700 
	C304.865173,51.164997 301.656494,43.680317 299.094727,35.980412 
	C297.698914,31.784946 295.685242,29.984175 291.001221,31.371372 
	C287.589630,40.234943 284.099731,49.301891 280.564453,58.486786 
	C286.726654,59.336201 286.726654,59.336201 288.723663,54.001884 
	C291.814331,54.001884 294.965454,54.001884 299.029022,54.030445 
M242.272659,162.995728 
	C243.059967,161.249771 243.847260,159.503815 244.832397,157.319138 
	C235.450180,157.319138 227.262207,157.319138 218.923157,157.319138 
	C219.033356,159.390671 219.126038,161.132812 219.238327,163.243790 
	C222.385391,163.243790 225.117523,163.243790 228.182587,163.243790 
	C228.182587,172.365891 228.182587,181.095047 228.182587,189.730301 
	C230.278564,189.730301 232.011887,189.730301 234.106445,189.730301 
	C234.106445,180.745041 234.106445,172.023636 234.106445,162.999466 
	C236.760513,162.999466 239.049179,162.999466 242.272659,162.995728 
M339.532959,30.999111 
	C336.410950,30.999111 333.288940,30.999111 330.380524,30.999111 
	C328.245392,39.124062 334.653625,36.268219 338.144714,37.274715 
	C338.144714,44.640724 338.144714,51.728214 338.144714,58.728310 
	C340.274780,58.728310 342.011261,58.728310 344.132935,58.728310 
	C344.132935,51.380688 344.132935,44.299744 344.132935,36.810776 
	C346.935455,36.810776 349.345886,36.810776 351.720367,36.810776 
	C351.720367,34.651493 351.720367,32.922333 351.720367,30.999111 
	C347.798584,30.999111 344.155762,30.999111 339.532959,30.999111 
M312.997375,175.495148 
	C312.997375,180.256683 312.997375,185.018204 312.997375,189.689606 
	C315.729614,189.689606 317.789032,189.689606 319.711853,189.689606 
	C319.711853,178.638046 319.711853,167.899353 319.711853,157.293823 
	C317.351379,157.293823 315.283539,157.293823 312.997375,157.293823 
	C312.997375,163.222214 312.997375,168.859726 312.997375,175.495148 
M358.407257,58.995167 
	C358.937225,58.366219 359.921021,57.742680 359.928558,57.107506 
	C360.030762,48.535107 359.997131,39.961090 359.997131,31.196133 
	C357.891846,31.196133 356.161652,31.196133 354.006897,31.196133 
	C354.006897,39.711754 354.125549,48.116573 353.944611,56.514938 
	C353.878418,59.588108 355.736603,58.975681 358.407257,58.995167 
z"/>
<path fill="#993932" opacity="1.000000" stroke="none" 
	d="
M41.129681,109.118752 
	C38.004124,99.527893 35.247223,89.753517 36.121433,79.617592 
	C37.262154,66.391609 41.229416,54.435257 50.017975,43.604748 
	C57.611427,34.247017 66.417816,27.774649 77.255615,23.395761 
	C93.690567,16.755411 109.778450,17.622406 125.876122,24.903654 
	C144.073624,33.134678 156.113525,47.035446 160.689377,65.963341 
	C166.329834,89.294769 161.457199,110.723732 143.486526,128.014465 
	C142.408676,129.051529 141.382294,130.142029 139.714233,131.551392 
	C128.209244,131.627579 117.314857,131.522339 106.436676,131.046631 
	C95.645683,130.574753 84.874336,129.665466 74.086113,129.107834 
	C72.145157,129.007492 70.164162,129.681885 68.201653,129.998611 
	C69.659515,131.373535 71.071892,131.870514 72.501640,131.926880 
	C84.130745,132.385315 95.771500,132.602036 107.391769,133.213974 
	C116.312523,133.683746 125.208717,134.620010 134.115829,135.348816 
	C133.181580,136.005768 132.247330,136.662720 130.753876,137.656250 
	C127.772034,138.333588 125.341743,139.012405 122.928055,138.957794 
	C111.190865,138.692245 99.454239,138.318924 87.725182,137.806152 
	C80.161926,137.475494 72.612068,136.838211 64.781357,136.115540 
	C62.663616,134.549942 60.820721,133.207169 59.008598,131.420105 
	C58.280922,123.745049 57.522472,116.514267 56.764023,109.283493 
	C56.098610,109.352013 55.433193,109.420532 54.767780,109.489052 
	C55.118675,115.323914 55.469570,121.158775 55.516022,126.997101 
	C54.805756,127.005135 54.399929,127.009712 53.727654,126.907066 
	C53.025166,126.208580 52.589123,125.617310 52.011883,124.670227 
	C51.216656,121.211449 50.562630,118.108490 49.975227,114.627029 
	C49.722733,112.822327 49.403618,111.396118 49.140167,109.627304 
	C50.494133,106.857857 51.792431,104.431023 53.399265,102.035606 
	C58.199272,102.445778 54.891296,100.018036 54.961380,98.397675 
	C58.519878,96.874252 57.532616,93.243950 59.271988,90.893112 
	C60.682358,91.586372 61.779942,92.343086 62.914860,93.453499 
	C62.985802,94.517555 63.019413,95.227913 62.918495,96.134384 
	C62.669960,96.664108 62.439293,96.861015 61.863125,96.654205 
	C61.502239,98.668251 61.370201,100.949295 61.238163,103.230347 
	C61.552311,102.865501 61.866463,102.500656 62.504272,102.107224 
	C63.267540,101.434013 63.707153,100.789398 64.411026,99.979919 
	C64.773407,99.217308 64.871544,98.619560 65.016876,97.644608 
	C65.495842,96.242393 66.071503,95.251480 66.324417,94.184097 
	C66.671410,92.719673 66.773666,91.197266 66.980797,89.699707 
	C66.527519,89.657936 66.074242,89.616173 65.620964,89.574402 
	C65.104774,90.694977 64.588585,91.815552 64.051628,92.560089 
	C63.964378,91.183144 63.897900,90.182228 63.912262,88.852814 
	C63.776077,87.693604 63.559048,86.862900 63.224800,85.649635 
	C63.378311,84.026863 63.392017,82.650726 63.963726,81.569687 
	C66.612190,76.561699 69.449791,71.654045 72.134567,66.664673 
	C72.670471,65.668762 72.834763,64.472870 73.170403,63.369194 
	C71.876610,63.359486 71.274078,63.664982 70.964294,64.155396 
	C64.227295,74.820724 57.630077,85.576210 50.761772,96.155823 
	C47.836349,100.662003 44.357197,104.808701 41.129681,109.118752 
M107.015335,103.528992 
	C107.015335,103.528992 107.025108,103.125320 107.732552,102.983986 
	C108.473030,102.355804 109.213509,101.727623 109.994316,100.516624 
	C110.012428,100.127701 110.030540,99.738785 110.865425,99.268181 
	C116.448692,99.561630 122.031960,99.855080 127.615227,100.148529 
	C127.669571,99.654274 127.723915,99.160019 127.778259,98.665771 
	C126.431755,98.291023 125.085251,97.916283 123.835136,97.568367 
	C124.417488,96.821686 125.003220,96.070679 125.680336,95.202507 
	C120.511932,94.845039 115.797714,94.518990 110.335861,94.021812 
	C107.835159,94.656952 105.334450,95.292091 102.029762,95.947327 
	C92.434647,93.725807 82.883965,93.437195 73.395332,95.848770 
	C73.379112,96.299240 73.362900,96.749710 73.346687,97.200188 
	C76.889618,97.519371 80.432556,97.838554 83.970375,98.562157 
	C83.936836,98.829773 83.920197,99.098434 83.082985,99.742393 
	C79.540886,99.742393 75.998795,99.742393 72.456696,99.742393 
	C72.412178,100.174438 72.367661,100.606476 72.323143,101.038521 
	C78.819099,102.326096 85.315056,103.613663 92.616608,104.930832 
	C93.690483,104.963242 94.764351,104.995651 96.302452,105.745964 
	C107.520401,106.370537 118.738358,106.995117 129.956299,107.619698 
	C129.999741,106.899895 130.043167,106.180092 130.086609,105.460289 
	C126.089706,105.235817 122.092796,105.011353 118.664543,104.332764 
	C120.324852,104.010712 121.985168,103.688652 123.645477,103.366592 
	C120.839165,102.910950 117.057915,98.848534 115.147491,104.660713 
	C112.437027,104.418068 109.726555,104.175423 107.015335,103.528992 
M134.539505,115.999596 
	C134.352020,115.700981 134.164536,115.402374 133.102905,114.951538 
	C114.612114,113.990417 96.121323,113.029305 77.630531,112.068192 
	C77.587372,112.502029 77.544212,112.935867 77.501053,113.369713 
	C78.380249,113.614738 79.250153,114.030991 80.140022,114.079231 
	C94.659019,114.866302 109.178345,115.654831 123.703133,116.322548 
	C127.138535,116.480476 130.594223,116.197144 134.539505,115.999596 
M83.762772,87.153847 
	C81.053970,87.557976 78.345169,87.962097 74.579773,88.523857 
	C76.636688,89.883751 77.977936,91.498871 79.420357,91.594933 
	C84.940331,91.962532 90.492821,91.841774 96.886734,92.082817 
	C100.584557,92.332886 104.282379,92.582962 108.679588,92.954567 
	C109.698807,92.603432 110.718025,92.252304 112.803078,91.533974 
	C110.497482,90.220261 109.284370,89.529045 107.923126,87.929726 
	C107.923126,81.671730 107.923126,75.413734 107.923126,69.992233 
	C111.427452,68.651550 114.078735,67.637222 116.730019,66.622894 
	C116.631271,66.015610 116.532532,65.408325 116.433784,64.801048 
	C114.121468,64.330070 111.809158,63.859100 109.496849,63.388126 
	C109.244576,63.008747 108.992294,62.629368 108.740021,62.249989 
	C109.969978,61.477730 111.262550,60.787178 112.410248,59.907589 
	C113.342102,59.193409 114.100082,58.252342 114.935173,57.411911 
	C114.124107,56.743000 113.369789,55.984314 112.488152,55.427067 
	C111.286644,54.667652 109.988029,54.061874 107.578880,52.774582 
	C111.289391,51.761864 113.541145,51.147285 115.792900,50.532707 
	C115.891739,50.057346 115.990585,49.581989 116.089424,49.106628 
	C114.327126,48.424011 112.579018,47.196243 110.800148,47.149921 
	C101.380394,46.904617 91.950966,46.851212 82.530304,47.024799 
	C81.202003,47.049271 79.903389,48.684814 78.889389,49.372353 
	C80.904541,52.921570 87.146156,48.309334 85.833824,54.313564 
	C82.907936,55.128304 80.451553,55.812305 77.995171,56.496307 
	C78.019806,57.157497 78.044434,57.818684 78.069069,58.479874 
	C80.619919,59.156975 83.170769,59.834072 85.962746,60.575176 
	C86.393036,65.407654 82.377602,63.176773 80.252731,63.965614 
	C79.181282,64.363380 78.267586,65.186104 77.282555,65.816673 
	C78.218262,66.549171 79.072098,67.726295 80.107574,67.916969 
	C81.974678,68.260765 83.950493,68.014168 84.639191,68.014168 
	C84.639191,74.651764 84.639191,80.863792 83.762772,87.153847 
M125.508537,119.011757 
	C108.674156,118.393082 91.839775,117.774399 75.005402,117.155716 
	C74.987907,117.949585 74.970421,118.743454 74.952934,119.537331 
	C95.438873,120.550156 115.903976,122.181740 136.438492,121.752396 
	C136.480560,121.077263 136.522644,120.402130 136.564713,119.727005 
	C133.197922,119.506889 129.831146,119.286774 125.508537,119.011757 
M114.565331,127.087448 
	C118.876343,127.305054 123.185234,127.600883 127.498978,127.717354 
	C131.484116,127.824944 135.474457,127.740265 139.462509,127.740265 
	C139.464539,126.940773 139.466568,126.141273 139.468613,125.341782 
	C129.069504,125.341782 118.670403,125.341782 108.271294,125.341782 
	C108.226974,125.605499 108.182648,125.869225 108.138329,126.132942 
	C109.987358,126.435944 111.836388,126.738945 114.565331,127.087448 
M93.205307,125.993927 
	C94.443001,125.866409 95.680702,125.738892 96.918396,125.611374 
	C96.869598,125.151215 96.820808,124.691063 96.772018,124.230904 
	C85.581894,123.550598 74.392899,122.673225 63.195168,123.325653 
	C63.183056,124.222870 63.170940,125.120094 63.158829,126.017311 
	C72.862892,126.017311 82.566963,126.017311 93.205307,125.993927 
M104.456146,108.926895 
	C100.499504,108.714050 96.545082,108.419373 92.585579,108.311554 
	C88.683907,108.205315 84.777084,108.288361 80.872520,108.288361 
	C80.868370,108.803040 80.864227,109.317719 80.860077,109.832397 
	C90.141251,110.314804 99.422432,110.797218 108.703606,111.279625 
	C108.752487,110.678787 108.801369,110.077942 108.850250,109.477097 
	C107.683968,109.313438 106.517693,109.149780 104.456146,108.926895 
M65.137192,103.170341 
	C65.328468,103.103760 65.519737,103.037170 65.711014,102.970573 
	C65.506882,102.903816 65.302750,102.837059 65.137192,103.170341 
z"/>
<path fill="#983931" opacity="1.000000" stroke="none" 
	d="
M300.156799,86.972534 
	C305.076843,85.911385 309.141418,83.751396 313.481720,80.787430 
	C322.171356,74.853302 332.174866,70.795181 341.817017,66.355728 
	C343.253082,65.694519 345.672455,67.168922 346.698822,67.423050 
	C346.585022,69.699097 346.524719,70.905579 346.213806,72.501900 
	C344.002777,72.999901 342.042297,73.108047 339.718536,73.236237 
	C339.718536,95.187485 339.718536,116.882378 339.718536,139.159927 
	C353.775574,139.159927 367.401154,139.159927 381.026733,139.159927 
	C377.397583,144.316162 371.368408,142.825745 366.524994,143.704269 
	C360.922577,144.720505 354.911896,143.504837 349.079742,143.230743 
	C341.862732,142.891556 334.579315,141.750534 327.448883,142.375076 
	C319.477386,143.073303 311.698181,145.863266 303.725708,146.706543 
	C300.618866,147.035156 297.315277,148.631912 293.371948,145.925552 
	C290.085052,143.669693 284.509674,144.679642 279.938965,144.377213 
	C270.203461,143.733078 260.464447,143.134735 250.722137,142.604568 
	C247.077087,142.406219 243.376495,142.077805 239.778687,142.488083 
	C236.221344,142.893768 232.804550,144.615829 229.250305,144.947052 
	C222.132645,145.610382 214.586533,144.481384 207.951019,146.501923 
	C203.708313,147.793823 199.917160,147.236862 196.363968,146.824799 
	C190.794327,146.178894 185.460281,143.501205 178.796112,141.272614 
	C181.120789,139.216599 181.988434,138.298401 183.007599,137.601974 
	C183.663910,137.153488 185.243179,136.894958 185.221191,136.781403 
	C184.210922,131.567551 190.864594,128.852249 189.571335,123.564911 
	C189.560364,123.520020 190.640427,123.208260 191.595398,123.427704 
	C192.215088,128.743774 192.450439,133.653244 192.695160,138.757812 
	C196.157654,138.757812 199.743683,138.757812 203.902985,138.757812 
	C203.902985,131.585602 204.049240,124.640404 203.849396,117.705170 
	C203.724884,113.383926 205.877426,111.195229 209.780945,111.082848 
	C218.036652,110.845177 226.303986,111.010452 235.032440,111.010452 
	C235.032440,120.414101 235.032440,129.478531 235.032440,138.760101 
	C238.902679,138.760101 242.301941,138.760101 246.176788,138.760101 
	C246.176788,137.411285 246.176132,136.294907 246.176910,135.178543 
	C246.186722,121.045433 246.155319,106.912041 246.248810,92.779488 
	C246.263840,90.507492 246.836456,88.239204 247.151321,85.969200 
	C251.058853,84.394943 254.966370,82.820679 258.873901,81.246422 
	C259.080811,81.625084 259.287750,82.003754 259.494659,82.382423 
	C258.810883,83.411903 258.127106,84.441391 257.343353,85.621437 
	C258.370087,86.072914 259.369568,86.512398 260.760345,87.353271 
	C261.436371,89.692131 261.949402,91.627495 261.967285,93.567436 
	C262.055939,103.193375 262.014740,112.820534 262.017761,122.447258 
	C262.019440,127.860558 262.018066,133.273849 262.018066,138.695602 
	C266.040466,138.695602 269.437103,138.695602 273.165985,138.695602 
	C273.165985,124.981949 273.128326,111.565407 273.205627,98.149513 
	C273.217529,96.079765 273.757446,94.013054 274.053192,91.944946 
	C275.464478,92.369492 277.950500,92.540100 278.120117,93.258018 
	C279.742432,100.124039 282.843964,96.832153 285.841888,94.585976 
	C286.365967,94.193336 286.819061,93.705994 287.845886,93.455338 
	C288.386871,108.590919 288.386871,123.533554 288.386871,138.637909 
	C302.933838,138.637909 316.627258,138.637909 330.318420,138.637909 
	C330.318420,135.199402 330.318420,132.131332 330.318420,128.496216 
	C320.031158,128.496216 310.125000,128.496216 300.156799,128.496216 
	C300.156799,114.272125 300.156799,100.622330 300.156799,86.972534 
z"/>
<path fill="#EFF2F4" opacity="1.000000" stroke="none" 
	d="
M53.090729,102.004196 
	C51.792431,104.431023 50.494133,106.857857 48.823402,109.779144 
	C47.317616,112.558090 46.184265,114.842575 45.050915,117.127068 
	C42.925293,127.399857 44.173241,137.652786 44.912739,147.959610 
	C45.455677,155.526779 45.019188,163.164215 45.019188,172.334732 
	C43.051235,170.258163 42.155033,169.007278 40.970909,168.157654 
	C39.988300,167.452591 38.666664,167.220001 36.710247,166.481995 
	C37.261280,182.139511 37.781048,196.908463 38.305454,211.809387 
	C36.061226,211.809387 34.623661,211.809387 33.299774,211.809387 
	C32.746803,188.930145 32.198555,166.246460 31.640285,143.148041 
	C30.775539,144.663788 30.034863,145.951599 29.304276,147.245102 
	C28.199997,149.200180 26.496540,150.971130 29.273588,153.198166 
	C30.106457,153.866074 29.970732,155.966278 29.973562,157.410904 
	C30.013033,177.563843 30.257572,197.721527 29.896994,217.868103 
	C29.697407,229.019653 28.463419,240.152679 27.670155,251.664810 
	C25.019629,251.664810 22.143324,251.664810 18.593031,251.664810 
	C19.450991,221.201767 20.306774,190.815918 21.162560,160.430069 
	C20.911587,160.345856 20.660614,160.261642 20.409641,160.177429 
	C19.274673,165.327057 17.840891,170.434601 17.107578,175.640793 
	C16.600889,179.238037 14.224797,179.831589 11.654540,179.902496 
	C9.056212,179.974182 8.757591,177.853302 7.760007,175.613525 
	C4.373466,168.010071 9.911537,163.253632 12.750233,157.935043 
	C19.461626,145.360580 26.872089,133.158279 34.042522,120.830299 
	C36.216164,117.093216 38.529404,113.437317 40.954193,109.431488 
	C44.357197,104.808701 47.836349,100.662003 50.761772,96.155823 
	C57.630077,85.576210 64.227295,74.820724 70.964294,64.155396 
	C71.274078,63.664982 71.876610,63.359486 73.170403,63.369194 
	C72.834763,64.472870 72.670471,65.668762 72.134567,66.664673 
	C69.449791,71.654045 66.612190,76.561699 63.963726,81.569687 
	C63.392017,82.650726 63.378311,84.026863 62.884731,85.763908 
	C61.427662,87.826012 60.193432,89.391289 58.959202,90.956558 
	C57.532616,93.243950 58.519878,96.874252 54.702362,98.586327 
	C53.945194,100.106476 53.517960,101.055336 53.090729,102.004196 
M37.002731,163.167145 
	C37.537167,164.102951 38.071602,165.038757 38.606045,165.974564 
	C39.402771,164.939438 40.894894,163.893677 40.879284,162.870941 
	C40.799553,157.646576 40.333103,152.427979 39.997143,147.207672 
	C39.639282,141.647018 39.276073,136.086700 38.915199,130.526245 
	C38.452106,130.488190 37.989010,130.450134 37.525913,130.412079 
	C37.018185,133.476257 36.064728,136.544220 36.090843,139.603836 
	C36.155228,147.147522 36.669285,154.687363 37.002731,163.167145 
z"/>
<path fill="#EFF2F4" opacity="1.000000" stroke="none" 
	d="
M247.083084,85.508514 
	C246.836456,88.239204 246.263840,90.507492 246.248810,92.779488 
	C246.155319,106.912041 246.186722,121.045433 246.176910,135.178543 
	C246.176132,136.294907 246.176788,137.411285 246.176788,138.760101 
	C242.301941,138.760101 238.902679,138.760101 235.032440,138.760101 
	C235.032440,129.478531 235.032440,120.414101 235.032440,111.010452 
	C226.303986,111.010452 218.036652,110.845177 209.780945,111.082848 
	C205.877426,111.195229 203.724884,113.383926 203.849396,117.705170 
	C204.049240,124.640404 203.902985,131.585602 203.902985,138.757812 
	C199.743683,138.757812 196.157654,138.757812 192.695160,138.757812 
	C192.450439,133.653244 192.215088,128.743774 191.912781,123.417183 
	C191.845856,106.458328 191.845856,89.916603 191.845856,73.191162 
	C196.141403,73.191162 199.867081,73.191162 203.959915,73.191162 
	C203.959915,82.091644 203.959915,90.808968 203.959915,99.996254 
	C211.231354,99.996254 218.145935,99.996254 225.971191,100.031235 
	C229.456909,100.066223 232.031967,100.066223 235.316467,100.066223 
	C234.867081,97.700897 234.496094,95.748268 234.125122,93.795647 
	C234.125122,87.024475 234.125122,80.253304 234.125122,73.240875 
	C238.365768,73.240875 242.426407,73.240875 247.014847,73.240875 
	C247.014847,77.191887 247.014847,81.119858 247.083084,85.508514 
z"/>
<path fill="#F0F4F6" opacity="1.000000" stroke="none" 
	d="
M57.998684,251.999451 
	C49.177864,251.998627 40.856731,251.998627 32.611839,251.998627 
	C31.241699,249.177917 29.955746,246.530533 28.403252,243.334412 
	C29.676418,243.161957 30.270994,242.952194 30.828405,243.025406 
	C38.503452,244.033432 45.755684,242.206116 52.475342,238.888092 
	C58.367191,235.978851 64.232094,237.224731 70.123901,237.654495 
	C96.001823,239.542068 121.924774,239.375443 147.816116,238.794571 
	C158.289810,238.559586 168.729828,237.184052 178.932266,240.174759 
	C180.956238,240.768066 182.525696,243.497269 183.798233,245.554794 
	C184.040924,245.947205 181.980148,248.758148 180.849350,248.851898 
	C169.878448,249.761688 158.885391,250.707428 147.886322,250.886993 
	C137.370529,251.058655 126.839455,250.048737 116.316261,250.072632 
	C103.453506,250.101837 90.590286,250.613678 77.730637,251.022781 
	C71.316010,251.226868 64.908882,251.666962 57.998684,251.999451 
z"/>
<path fill="#983830" opacity="1.000000" stroke="none" 
	d="
M351.137512,78.958801 
	C358.257751,83.024948 365.282196,87.273499 372.536469,91.084511 
	C376.489960,93.161469 380.867584,94.416565 384.991241,96.188179 
	C389.141388,97.971161 391.280548,100.840477 391.093689,105.771805 
	C390.748627,114.876808 391.139862,124.007607 390.926636,133.120697 
	C390.836731,136.963547 391.208252,141.311096 385.970825,143.459030 
	C384.979462,142.229477 383.779480,140.741150 382.204041,138.673981 
	C381.508087,135.049820 381.187592,132.004517 380.824738,128.556946 
	C370.801636,128.556946 361.065796,128.556946 351.137512,128.556946 
	C351.137512,111.730095 351.137512,95.344444 351.137512,78.958801 
z"/>
<path fill="#F0F4F6" opacity="1.000000" stroke="none" 
	d="
M89.997025,215.005920 
	C102.048965,215.340454 113.630043,215.667313 125.210907,216.001160 
	C136.631363,216.330368 148.053650,216.610977 159.471024,217.025894 
	C164.386627,217.204529 169.395370,217.182419 174.160110,218.197876 
	C176.709900,218.741287 178.831253,221.295197 181.145950,222.941772 
	C181.079819,223.472931 181.013672,224.004089 180.947540,224.535263 
	C176.566574,224.690018 172.186295,224.948853 167.804489,224.978577 
	C157.641327,225.047531 147.475525,225.131409 137.314240,224.979050 
	C122.559837,224.757828 107.809723,224.213394 93.055145,224.059174 
	C87.640823,224.002594 82.204445,225.090500 76.803772,224.905960 
	C67.145988,224.575958 57.491550,223.839752 47.873631,222.889557 
	C45.727833,222.677582 43.738914,220.877701 41.556095,219.745804 
	C45.875484,214.205078 49.958900,213.131866 55.618286,215.084473 
	C57.102093,215.596405 58.953274,214.949615 60.628315,215.017731 
	C67.358238,215.291397 74.082802,215.769882 80.814476,215.893509 
	C83.711899,215.946716 86.621811,215.319412 89.997025,215.005920 
z"/>
<path fill="#F0F3F5" opacity="1.000000" stroke="none" 
	d="
M300.085266,86.511467 
	C300.156799,100.622330 300.156799,114.272125 300.156799,128.496216 
	C310.125000,128.496216 320.031158,128.496216 330.318420,128.496216 
	C330.318420,132.131332 330.318420,135.199402 330.318420,138.637909 
	C316.627258,138.637909 302.933838,138.637909 288.386871,138.637909 
	C288.386871,123.533554 288.386871,108.590919 288.151825,93.303612 
	C287.916779,86.488068 287.916779,80.017204 287.916779,73.273399 
	C291.978027,73.273399 295.716705,73.273399 300.013733,73.273399 
	C300.013733,77.505089 300.013733,81.777748 300.085266,86.511467 
z"/>
<path fill="#EFF1F3" opacity="1.000000" stroke="none" 
	d="
M351.076843,78.527054 
	C351.137512,95.344444 351.137512,111.730095 351.137512,128.556946 
	C361.065796,128.556946 370.801636,128.556946 380.824738,128.556946 
	C381.187592,132.004517 381.508087,135.049820 381.923096,138.489014 
	C381.850922,138.923187 381.684235,138.963470 381.272156,139.081848 
	C367.401154,139.159927 353.775574,139.159927 339.718536,139.159927 
	C339.718536,116.882378 339.718536,95.187485 339.718536,73.236237 
	C342.042297,73.108047 344.002777,72.999901 346.380798,72.758377 
	C348.061981,72.827553 349.325653,73.030098 351.016174,73.301064 
	C351.016174,74.891609 351.016174,76.493454 351.076843,78.527054 
z"/>
<path fill="#F0F4F6" opacity="1.000000" stroke="none" 
	d="
M88.055466,196.979797 
	C94.154175,196.948685 99.862648,197.026505 105.566322,196.895386 
	C110.498627,196.782013 115.423767,196.268311 120.355064,196.216370 
	C134.790253,196.064316 149.228653,195.920715 163.661453,196.107697 
	C166.376541,196.142883 169.071655,197.718765 172.034286,198.666290 
	C170.348053,202.572800 168.189590,204.255051 164.308655,204.063522 
	C150.840607,203.398849 137.365021,202.797836 123.885033,202.488373 
	C108.924950,202.144943 93.956047,202.205109 78.992630,201.979874 
	C68.890190,201.827805 58.790871,201.473892 48.689293,201.248962 
	C47.739403,201.227798 46.783325,201.484543 45.444298,201.663971 
	C45.729340,199.611755 45.958138,197.964478 46.092373,196.998016 
	C60.074989,196.998016 73.869064,196.998016 88.055466,196.979797 
z"/>
<path fill="#EFF3F5" opacity="1.000000" stroke="none" 
	d="
M274.029114,91.482407 
	C273.757446,94.013054 273.217529,96.079765 273.205627,98.149513 
	C273.128326,111.565407 273.165985,124.981949 273.165985,138.695602 
	C269.437103,138.695602 266.040466,138.695602 262.018066,138.695602 
	C262.018066,133.273849 262.019440,127.860558 262.017761,122.447258 
	C262.014740,112.820534 262.055939,103.193375 261.967285,93.567436 
	C261.949402,91.627495 261.436371,89.692131 261.099060,87.329193 
	C261.046478,82.448349 261.046478,77.992973 261.046478,73.269806 
	C265.335236,73.269806 269.398621,73.269806 274.005035,73.269806 
	C274.005035,79.174515 274.005035,85.097191 274.029114,91.482407 
z"/>
<path fill="#F0F4F6" opacity="1.000000" stroke="none" 
	d="
M341.955994,156.000595 
	C350.501770,157.015274 355.806793,160.887039 358.169312,169.249329 
	C361.320190,180.402176 351.324799,192.208374 339.996521,190.084854 
	C326.600525,187.573746 320.403015,175.664886 326.959167,164.289551 
	C330.179718,158.701706 335.455505,156.630157 341.955994,156.000595 
M351.966675,174.218430 
	C351.121979,164.133514 345.008026,162.427307 339.046082,163.016846 
	C334.044983,163.511368 331.012024,169.337067 332.008118,176.335648 
	C332.587494,180.406357 336.563263,183.681198 341.312805,183.999924 
	C346.260773,184.331955 349.459900,181.501144 351.966675,174.218430 
z"/>
<path fill="#F0F4F6" opacity="1.000000" stroke="none" 
	d="
M295.443787,157.015717 
	C307.401581,161.522781 311.597198,169.286133 307.975159,179.732117 
	C305.679779,186.352005 300.094086,188.957016 293.836456,189.858704 
	C289.472412,190.487534 284.944611,189.979889 280.247925,189.979889 
	C280.247925,178.985352 280.247925,168.270187 280.247925,157.002243 
	C285.154419,157.002243 290.077179,157.002243 295.443787,157.015717 
M300.651245,168.084457 
	C297.133545,162.497818 291.770721,162.775787 286.224731,163.185486 
	C286.224731,170.292419 286.224731,177.028793 286.224731,183.746796 
	C300.529327,184.648926 304.430481,175.892487 300.651245,168.084457 
z"/>
<path fill="#F0F4F6" opacity="1.000000" stroke="none" 
	d="
M134.029388,187.059784 
	C131.010010,187.377609 128.437180,188.012238 125.876442,187.966705 
	C113.144699,187.740326 100.415581,187.354324 87.686638,186.986359 
	C77.275841,186.685394 66.867233,186.307007 56.456005,186.023361 
	C54.730171,185.976334 52.995888,186.239136 51.161530,186.365936 
	C49.016701,182.100967 49.634209,180.933090 54.415348,181.012695 
	C72.145851,181.307877 89.875504,181.655258 107.605194,181.997482 
	C124.306084,182.319839 141.006073,182.695511 157.707932,182.953644 
	C160.107590,182.990738 162.634628,182.917694 162.681839,185.864929 
	C162.692825,186.549637 159.441284,187.827560 157.652237,187.901993 
	C151.503143,188.157730 145.335831,188.062729 139.177902,187.958160 
	C137.607819,187.931519 136.046738,187.375671 134.029388,187.059784 
z"/>
<path fill="#F0F4F5" opacity="1.000000" stroke="none" 
	d="
M215.305817,186.203705 
	C210.729080,191.909668 204.660202,190.413559 199.416077,189.582764 
	C194.620010,188.822937 192.258453,184.575363 192.058289,179.301865 
	C195.159027,178.819336 197.688095,178.329544 199.840195,182.047897 
	C201.920288,185.641785 206.061676,184.652267 209.125549,183.134628 
	C211.551102,181.933182 212.314499,179.538528 208.941681,178.042450 
	C207.042969,177.200241 205.046371,176.491440 203.023544,176.032486 
	C196.741470,174.607132 193.139145,171.183517 192.999695,166.270233 
	C192.863800,161.481155 196.273865,157.859467 202.466141,156.216309 
	C210.055923,154.202316 217.174515,159.843033 216.758591,167.774963 
	C214.999802,167.774963 213.225342,167.774963 211.449417,167.778351 
	C208.683533,162.193298 205.673615,160.632797 201.953293,163.088394 
	C201.038635,163.692123 200.119827,165.097946 200.159058,166.097504 
	C200.194122,166.990417 201.388687,168.234863 202.352112,168.616989 
	C204.862167,169.612518 207.543167,170.166672 210.125519,170.992188 
	C217.806198,173.447510 219.744553,178.783524 215.305817,186.203705 
z"/>
<path fill="#F0F4F6" opacity="1.000000" stroke="none" 
	d="
M371.281555,175.994080 
	C363.720459,173.021774 361.625122,169.835251 362.974854,163.978638 
	C364.225433,158.552292 370.243927,154.888763 376.506226,156.051041 
	C382.207520,157.109222 387.053131,161.011627 385.637207,167.805878 
	C384.061066,167.805878 382.440216,167.805878 380.769043,167.805878 
	C378.530365,162.634018 376.304840,161.331436 371.936310,163.055679 
	C370.804504,163.502426 369.088654,164.877914 369.206116,165.555450 
	C369.418304,166.779083 370.594727,168.307648 371.753693,168.797516 
	C374.222046,169.840836 376.937042,170.300873 379.551117,170.999329 
	C385.372162,172.554672 387.308533,177.481110 386.940582,181.570145 
	C386.553284,185.874039 381.388428,189.622116 376.633728,190.049316 
	C365.904114,191.013382 361.807159,186.580841 361.088623,179.290405 
	C363.184021,179.290405 365.259155,179.290405 367.395538,179.290405 
	C368.897400,183.196625 372.905396,185.324905 376.952576,183.889145 
	C378.155823,183.462265 379.649445,182.048080 379.787811,180.934387 
	C379.925507,179.826431 378.805237,177.964310 377.740082,177.438232 
	C375.928711,176.543610 373.728058,176.437225 371.281555,175.994080 
z"/>
<path fill="#F0F4F6" opacity="1.000000" stroke="none" 
	d="
M246.000000,176.626266 
	C245.999954,169.889053 245.999954,163.611145 245.999954,157.171173 
	C248.382111,157.171173 250.334152,157.171173 252.999512,157.171173 
	C252.999512,163.284683 252.985779,169.526093 253.003479,175.767395 
	C253.020370,181.720184 255.073868,184.071594 260.137878,183.999329 
	C264.939484,183.930801 266.970062,181.595642 266.998840,175.995209 
	C267.030365,169.859619 267.006012,163.723755 267.006012,157.294556 
	C269.261688,157.294556 271.323730,157.294556 273.992004,157.294556 
	C273.992004,164.406830 274.498749,171.710938 273.845337,178.909775 
	C273.227783,185.713562 266.794861,190.786774 260.116760,190.974976 
	C252.867493,191.179260 247.528488,185.926239 246.000000,176.626266 
z"/>
<path fill="#F1F4F6" opacity="1.000000" stroke="none" 
	d="
M81.099457,160.000153 
	C72.757210,159.515274 64.896591,158.682159 57.037594,158.697220 
	C53.408768,158.704163 53.357281,156.852280 52.687115,154.262543 
	C86.951996,155.570724 120.838264,156.864456 155.928284,158.204147 
	C152.620224,161.838898 150.946274,165.067154 146.730850,161.735291 
	C145.929138,161.101639 143.476532,163.009720 141.828339,162.924026 
	C125.073845,162.052704 108.329903,160.980545 91.578621,160.043076 
	C88.255905,159.857132 84.914520,160.004913 81.099457,160.000153 
z"/>
<path fill="#F0F4F7" opacity="1.000000" stroke="none" 
	d="
M201.218781,36.602692 
	C202.855103,38.454815 204.302765,39.983643 205.546860,41.297497 
	C209.876846,38.278252 210.388702,29.972664 218.801605,31.093700 
	C218.801605,40.263985 218.801605,49.348412 218.801605,58.716904 
	C217.022659,58.716904 215.287704,58.716904 213.395340,58.716904 
	C211.751923,54.058071 214.769516,48.491615 211.411026,43.655109 
	C209.246765,46.022572 207.433548,48.006031 205.449188,50.176685 
	C203.039536,47.455544 200.793228,44.918873 198.083862,41.859272 
	C198.083862,47.805954 198.083862,53.173119 198.083862,58.762779 
	C195.955444,58.762779 194.220673,58.762779 192.240936,58.762779 
	C192.240936,49.664417 192.240936,40.589104 192.240936,31.405642 
	C197.126236,29.508411 199.024399,32.992958 201.218781,36.602692 
z"/>
<path fill="#F1F4F6" opacity="1.000000" stroke="none" 
	d="
M59.255024,170.996429 
	C56.064705,170.558990 53.345413,170.124542 49.938293,169.580200 
	C50.207573,168.492966 50.135841,166.760773 50.908577,166.207001 
	C51.753033,165.601852 53.392796,165.974014 54.659660,166.131439 
	C55.732864,166.264771 56.763218,166.940674 57.821815,166.964523 
	C75.246010,167.356949 92.678802,167.479218 110.094917,168.085724 
	C126.221237,168.647339 142.330063,169.711288 158.730194,170.568848 
	C158.730194,171.618118 158.730194,173.016418 158.730194,174.735794 
	C158.279083,174.813339 157.675247,175.038727 157.089706,174.998444 
	C152.678040,174.694992 148.275177,174.161835 143.859833,174.032669 
	C129.634979,173.616547 115.401031,173.480865 101.179878,172.975693 
	C87.355980,172.484619 73.543526,171.671265 59.255024,170.996429 
z"/>
<path fill="#F0F4F5" opacity="1.000000" stroke="none" 
	d="
M259.425476,31.005386 
	C263.564148,36.001095 267.277313,40.990116 270.985870,45.982601 
	C271.416138,46.561832 271.820618,47.160210 272.955322,48.766541 
	C272.955322,42.157631 272.955322,36.783325 272.955322,31.212481 
	C275.086060,31.212481 276.825226,31.212481 278.785400,31.212481 
	C278.785400,40.381657 278.785400,49.475010 278.785400,58.526756 
	C272.462952,61.207577 270.859497,55.527191 268.170807,52.384560 
	C265.615723,49.398098 263.832703,45.751102 261.127319,41.472725 
	C261.127319,47.818230 261.127319,53.165180 261.127319,58.749306 
	C258.975433,58.749306 257.237000,58.749306 255.250183,58.749306 
	C255.250183,49.682178 255.250183,40.589817 255.250183,30.999735 
	C256.488190,30.999735 257.743408,30.999735 259.425476,31.005386 
z"/>
<path fill="#F0F3F5" opacity="1.000000" stroke="none" 
	d="
M224.045181,51.535797 
	C221.136337,43.503059 223.574554,35.882313 229.940292,32.540943 
	C236.186523,29.262291 245.366196,30.871210 249.000259,35.881577 
	C253.684891,42.340389 253.054047,51.349766 246.901764,56.509853 
	C240.944305,61.506550 230.016983,62.077587 224.045181,51.535797 
M241.128403,37.027340 
	C240.629471,37.011257 240.048447,37.157978 239.644196,36.954136 
	C235.166336,34.696182 232.150970,37.071041 229.979065,40.461876 
	C227.661392,44.080318 228.851593,50.436764 232.041000,52.468315 
	C235.678864,54.785526 239.529373,55.074814 242.769318,51.680458 
	C247.602264,46.617195 246.654266,43.003147 241.128403,37.027340 
z"/>
<path fill="#F1F4F6" opacity="1.000000" stroke="none" 
	d="
M105.994438,146.113052 
	C107.505241,146.408997 109.014603,146.952927 110.527077,146.961716 
	C122.620636,147.031952 134.714783,147.000916 146.808746,147.000916 
	C146.950485,147.860840 147.092224,148.720779 147.233963,149.580704 
	C144.627045,150.391296 142.019333,151.890121 139.413330,151.887192 
	C130.555176,151.877197 121.674683,151.624207 112.846176,150.919571 
	C103.782372,150.196121 94.767021,151.208405 85.734505,150.970520 
	C77.328506,150.749130 68.915817,150.487717 60.535202,149.856934 
	C58.946949,149.737396 57.495071,147.805908 55.489529,146.724197 
	C54.998787,146.737930 54.986423,146.545029 55.384697,146.747894 
	C57.005020,146.297607 58.234383,145.067154 59.447960,145.082520 
	C69.285202,145.207138 79.119484,145.565399 89.425362,145.870468 
	C95.262177,145.963348 100.628311,146.038208 105.994438,146.113052 
z"/>
<path fill="#F0F4F6" opacity="1.000000" stroke="none" 
	d="
M385.105133,48.730259 
	C386.996918,48.203400 388.781525,48.078072 390.564026,47.952892 
	C390.949982,54.288296 385.430725,60.076885 378.605286,59.909332 
	C370.763428,59.716831 364.126221,55.844257 364.006622,46.038097 
	C363.876801,35.393620 368.425537,30.886475 379.108459,31.000454 
	C386.122101,31.075283 390.916656,35.491974 390.625641,43.005512 
	C388.154266,41.732548 385.927887,40.963593 384.170959,39.592896 
	C381.487183,37.499096 379.568756,35.090919 375.249512,36.817783 
	C370.010437,38.912403 369.125885,42.831078 370.239960,46.988403 
	C370.951019,49.641838 373.577728,52.775078 376.087860,53.718742 
	C379.783966,55.108284 383.517365,53.576107 385.105133,48.730259 
z"/>
<path fill="#F0F4F6" opacity="1.000000" stroke="none" 
	d="
M327.271698,45.759796 
	C331.053131,49.648262 329.671844,53.421661 327.507599,56.863319 
	C325.921844,59.385017 317.936523,60.610210 314.768127,59.280895 
	C309.446594,57.048222 308.876129,56.345997 307.392365,50.159084 
	C310.352692,49.855320 312.940155,49.453838 314.818878,53.025360 
	C316.093658,55.448784 321.338135,54.100689 324.738190,50.193508 
	C321.296295,49.039124 318.298401,47.864979 315.208038,47.035385 
	C310.148682,45.677227 308.366089,43.233604 309.043549,37.342613 
	C309.567841,32.783329 312.959198,31.240116 316.989258,31.032677 
	C325.847748,30.576700 328.935089,33.078705 328.905579,40.712875 
	C326.452820,40.847908 324.181000,42.067738 322.810303,38.141598 
	C321.608490,34.699165 316.936951,35.385445 313.739471,39.523197 
	C318.225647,41.542374 322.608459,43.515034 327.271698,45.759796 
z"/>
<path fill="#F0F4F6" opacity="1.000000" stroke="none" 
	d="
M298.572815,54.016167 
	C294.965454,54.001884 291.814331,54.001884 288.723663,54.001884 
	C286.726654,59.336201 286.726654,59.336201 280.564453,58.486786 
	C284.099731,49.301891 287.589630,40.234943 291.001221,31.371372 
	C295.685242,29.984175 297.698914,31.784946 299.094727,35.980412 
	C301.656494,43.680317 304.865173,51.164997 307.761566,58.629700 
	C302.959442,60.393009 300.474030,58.140614 298.572815,54.016167 
M296.019531,45.290348 
	C295.499390,43.782806 294.979279,42.275261 294.459137,40.767715 
	C294.099121,40.835552 293.739105,40.903393 293.379120,40.971230 
	C292.482178,43.457710 291.585266,45.944191 290.562439,48.779701 
	C293.218536,48.779701 295.393829,48.779701 297.781921,48.779701 
	C297.252930,47.685341 296.838104,46.827106 296.019531,45.290348 
z"/>
<path fill="#F0F4F6" opacity="1.000000" stroke="none" 
	d="
M241.805252,162.997589 
	C239.049179,162.999466 236.760513,162.999466 234.106445,162.999466 
	C234.106445,172.023636 234.106445,180.745041 234.106445,189.730301 
	C232.011887,189.730301 230.278564,189.730301 228.182587,189.730301 
	C228.182587,181.095047 228.182587,172.365891 228.182587,163.243790 
	C225.117523,163.243790 222.385391,163.243790 219.238327,163.243790 
	C219.126038,161.132812 219.033356,159.390671 218.923157,157.319138 
	C227.262207,157.319138 235.450180,157.319138 244.832397,157.319138 
	C243.847260,159.503815 243.059967,161.249771 241.805252,162.997589 
z"/>
<path fill="#F0F4F6" opacity="1.000000" stroke="none" 
	d="
M340.022949,30.999111 
	C344.155762,30.999111 347.798584,30.999111 351.720367,30.999111 
	C351.720367,32.922333 351.720367,34.651493 351.720367,36.810776 
	C349.345886,36.810776 346.935455,36.810776 344.132935,36.810776 
	C344.132935,44.299744 344.132935,51.380688 344.132935,58.728310 
	C342.011261,58.728310 340.274780,58.728310 338.144714,58.728310 
	C338.144714,51.728214 338.144714,44.640724 338.144714,37.274715 
	C334.653625,36.268219 328.245392,39.124062 330.380524,30.999111 
	C333.288940,30.999111 336.410950,30.999111 340.022949,30.999111 
z"/>
<path fill="#EAE7E8" opacity="1.000000" stroke="none" 
	d="
M65.056206,136.338348 
	C72.612068,136.838211 80.161926,137.475494 87.725182,137.806152 
	C99.454239,138.318924 111.190865,138.692245 122.928055,138.957794 
	C125.341743,139.012405 127.772034,138.333588 130.610077,137.910400 
	C135.681442,138.117096 140.337402,138.406219 144.993362,138.695343 
	C145.198334,139.331955 145.403290,139.968567 145.608261,140.605179 
	C144.259705,141.409912 142.903473,142.915268 141.563919,142.900574 
	C135.042084,142.829025 128.524689,142.350922 121.081589,141.913483 
	C112.581169,141.301086 105.011406,140.626022 97.426826,140.327637 
	C89.228653,140.005096 81.016640,140.034332 72.380264,139.910828 
	C67.612587,139.551834 63.275307,139.192123 58.938034,138.832413 
	C58.936775,138.408539 58.935520,137.984665 58.934265,137.560791 
	C60.974915,137.153320 63.015560,136.745834 65.056206,136.338348 
z"/>
<path fill="#F0F4F6" opacity="1.000000" stroke="none" 
	d="
M312.997375,174.996185 
	C312.997375,168.859726 312.997375,163.222214 312.997375,157.293823 
	C315.283539,157.293823 317.351379,157.293823 319.711853,157.293823 
	C319.711853,167.899353 319.711853,178.638046 319.711853,189.689606 
	C317.789032,189.689606 315.729614,189.689606 312.997375,189.689606 
	C312.997375,185.018204 312.997375,180.256683 312.997375,174.996185 
z"/>
<path fill="#E8E2E3" opacity="1.000000" stroke="none" 
	d="
M134.526825,135.254181 
	C125.208717,134.620010 116.312523,133.683746 107.391769,133.213974 
	C95.771500,132.602036 84.130745,132.385315 72.501640,131.926880 
	C71.071892,131.870514 69.659515,131.373535 68.201653,129.998611 
	C70.164162,129.681885 72.145157,129.007492 74.086113,129.107834 
	C84.874336,129.665466 95.645683,130.574753 106.436676,131.046631 
	C117.314857,131.522339 128.209244,131.627579 139.550461,131.828293 
	C141.216248,132.657791 142.428101,133.554123 143.639954,134.450455 
	C143.333084,135.003418 143.026230,135.556366 142.719360,136.109329 
	C140.125519,135.792740 137.531662,135.476151 134.526825,135.254181 
z"/>
<path fill="#993B33" opacity="1.000000" stroke="none" 
	d="
M72.810661,139.910141 
	C81.016640,140.034332 89.228653,140.005096 97.426826,140.327637 
	C105.011406,140.626022 112.581169,141.301086 120.618439,141.929077 
	C116.322968,143.364105 111.566498,144.680344 106.402237,146.054810 
	C100.628311,146.038208 95.262177,145.963348 89.205421,145.566910 
	C83.280083,143.466934 78.045372,141.688538 72.810661,139.910141 
z"/>
<path fill="#F0F4F5" opacity="1.000000" stroke="none" 
	d="
M357.936951,58.997742 
	C355.736603,58.975681 353.878418,59.588108 353.944611,56.514938 
	C354.125549,48.116573 354.006897,39.711754 354.006897,31.196133 
	C356.161652,31.196133 357.891846,31.196133 359.997131,31.196133 
	C359.997131,39.961090 360.030762,48.535107 359.928558,57.107506 
	C359.921021,57.742680 358.937225,58.366219 357.936951,58.997742 
z"/>
<path fill="#EFF2F4" opacity="1.000000" stroke="none" 
	d="
M49.908604,115.005531 
	C50.562630,118.108490 51.216656,121.211449 51.943466,125.121384 
	C52.358692,132.914581 52.701134,139.900803 53.034710,147.193237 
	C53.031883,147.703598 53.037926,147.907761 53.043964,148.111908 
	C52.310421,148.787277 51.576881,149.462631 50.497124,150.456757 
	C49.628166,140.461624 48.818634,131.150040 48.304688,121.198868 
	C48.395767,119.710052 48.191269,118.860840 47.986771,118.011612 
	C47.689816,117.879097 47.392857,117.746574 47.083641,117.024925 
	C48.017124,115.959045 48.962864,115.482292 49.908604,115.005531 
z"/>
<path fill="#983830" opacity="1.000000" stroke="none" 
	d="
M233.773102,93.895424 
	C234.496094,95.748268 234.867081,97.700897 235.316467,100.066223 
	C232.031967,100.066223 229.456909,100.066223 226.434540,99.962875 
	C228.465195,97.904747 230.943146,95.949974 233.773102,93.895424 
z"/>
<path fill="#EBEAEC" opacity="1.000000" stroke="none" 
	d="
M49.975227,114.627029 
	C48.962864,115.482292 48.017124,115.959045 47.011368,116.779068 
	C46.528053,117.090118 46.104752,117.057892 45.366180,117.076370 
	C46.184265,114.842575 47.317616,112.558090 48.767735,110.121750 
	C49.403618,111.396118 49.722733,112.822327 49.975227,114.627029 
z"/>
<path fill="#EBEAEC" opacity="1.000000" stroke="none" 
	d="
M53.519482,148.042145 
	C53.037926,147.907761 53.031883,147.703598 53.336906,147.181946 
	C54.094124,146.757980 54.540276,146.651505 54.986427,146.545044 
	C54.986423,146.545029 54.998787,146.737930 54.994331,146.682144 
	C54.658249,147.075027 54.326622,147.523697 53.519482,148.042145 
z"/>
<path fill="#EBEAEC" opacity="1.000000" stroke="none" 
	d="
M48.085617,118.375000 
	C48.191269,118.860840 48.395767,119.710052 48.381950,120.770416 
	C48.170582,120.233833 48.177521,119.486107 48.085617,118.375000 
z"/>
<path fill="#EAE7E9" opacity="1.000000" stroke="none" 
	d="
M107.980202,92.833038 
	C104.282379,92.582962 100.584557,92.332886 96.600075,91.779449 
	C96.205353,90.620956 96.097290,89.765831 96.364052,88.823341 
	C98.830605,88.619278 100.922340,88.502571 103.351791,88.367027 
	C103.351791,81.518280 103.351791,74.629753 103.351791,67.022430 
	C100.040031,67.022430 96.924301,66.939423 93.814964,67.044830 
	C90.431099,67.159546 88.992393,68.458801 89.425629,72.371414 
	C89.962196,77.217133 89.400772,82.184433 88.921318,87.072845 
	C87.232361,87.056274 85.935776,87.066055 84.639191,87.075836 
	C84.639191,80.863792 84.639191,74.651764 84.639191,68.014168 
	C83.950493,68.014168 81.974678,68.260765 80.107574,67.916969 
	C79.072098,67.726295 78.218262,66.549171 77.282555,65.816673 
	C78.267586,65.186104 79.181282,64.363380 80.252731,63.965614 
	C82.377602,63.176773 86.393036,65.407654 85.962746,60.575176 
	C83.170769,59.834072 80.619919,59.156975 78.069069,58.479874 
	C78.044434,57.818684 78.019806,57.157497 77.995171,56.496307 
	C80.451553,55.812305 82.907936,55.128304 85.833824,54.313564 
	C87.146156,48.309334 80.904541,52.921570 78.889389,49.372353 
	C79.903389,48.684814 81.202003,47.049271 82.530304,47.024799 
	C91.950966,46.851212 101.380394,46.904617 110.800148,47.149921 
	C112.579018,47.196243 114.327126,48.424011 116.089424,49.106628 
	C115.990585,49.581989 115.891739,50.057346 115.792900,50.532707 
	C113.541145,51.147285 111.289391,51.761864 107.578880,52.774582 
	C109.988029,54.061874 111.286644,54.667652 112.488152,55.427067 
	C113.369789,55.984314 114.124107,56.743000 114.935173,57.411911 
	C114.100082,58.252342 113.342102,59.193409 112.410248,59.907589 
	C111.262550,60.787178 109.969978,61.477730 108.740021,62.249989 
	C108.992294,62.629368 109.244576,63.008747 109.496849,63.388126 
	C111.809158,63.859100 114.121468,64.330070 116.433784,64.801048 
	C116.532532,65.408325 116.631271,66.015610 116.730019,66.622894 
	C114.078735,67.637222 111.427452,68.651550 107.923126,69.992233 
	C107.923126,75.413734 107.923126,81.671730 107.979675,88.783173 
	C108.017555,90.702095 107.998878,91.767563 107.980202,92.833038 
M98.397034,55.887169 
	C100.168671,55.887169 101.940300,55.887169 103.552513,55.887169 
	C104.830528,51.533310 103.755959,49.669106 99.426811,50.061382 
	C96.369232,50.338436 93.266289,50.114994 90.193275,50.114994 
	C90.193275,52.586819 90.193275,54.144081 90.193275,55.853519 
	C92.828735,55.853519 95.142235,55.853519 98.397034,55.887169 
M98.382416,63.949230 
	C99.967369,64.021133 101.552330,64.093040 103.338699,64.174080 
	C103.338699,62.255836 103.338699,60.756607 103.338699,59.281090 
	C98.559837,59.281090 94.178017,59.281090 89.568192,59.281090 
	C89.441917,60.942371 89.336777,62.325554 89.214645,63.932316 
	C92.233475,63.932316 94.835175,63.932316 98.382416,63.949230 
z"/>
<path fill="#000000" opacity="1.000000" stroke="none" 
	d="
M55.384697,146.747894 
	C54.540276,146.651505 54.094124,146.757980 53.345772,146.875732 
	C52.701134,139.900803 52.358692,132.914581 52.084667,125.477203 
	C52.589123,125.617310 53.025166,126.208580 53.840973,127.166214 
	C54.761204,128.048431 55.301666,128.564316 55.901192,129.423843 
	C56.026859,131.818115 56.218754,133.688416 58.977821,131.864395 
	C60.820721,133.207169 62.663616,134.549942 64.781357,136.115540 
	C63.015560,136.745834 60.974915,137.153320 58.934265,137.560791 
	C58.935520,137.984665 58.936775,138.408539 58.938034,138.832413 
	C63.275307,139.192123 67.612587,139.551834 72.380264,139.910828 
	C78.045372,141.688538 83.280083,143.466934 88.734734,145.548889 
	C79.119484,145.565399 69.285202,145.207138 59.447960,145.082520 
	C58.234383,145.067154 57.005020,146.297607 55.384697,146.747894 
z"/>
<path fill="#E3D8D9" opacity="1.000000" stroke="none" 
	d="
M83.975494,98.157738 
	C80.432556,97.838554 76.889618,97.519371 73.346687,97.200188 
	C73.362900,96.749710 73.379112,96.299240 73.395332,95.848770 
	C82.883965,93.437195 92.434647,93.725807 102.839050,95.962852 
	C106.284843,96.041702 109.639748,99.096664 111.083504,94.192947 
	C115.797714,94.518990 120.511932,94.845039 125.680336,95.202507 
	C125.003220,96.070679 124.417488,96.821686 123.835136,97.568367 
	C125.085251,97.916283 126.431755,98.291023 127.778259,98.665771 
	C127.723915,99.160019 127.669571,99.654274 127.615227,100.148529 
	C122.031960,99.855080 116.448692,99.561630 109.995865,99.203506 
	C100.742699,98.811798 92.359093,98.484772 83.975494,98.157738 
M118.396126,97.930641 
	C119.461281,97.768852 120.526428,97.607063 121.591583,97.445274 
	C121.435486,96.961395 121.279388,96.477516 121.123291,95.993637 
	C120.044991,96.522110 118.966698,97.050583 118.396126,97.930641 
z"/>
<path fill="#E3D8D9" opacity="1.000000" stroke="none" 
	d="
M125.986450,119.039207 
	C129.831146,119.286774 133.197922,119.506889 136.564713,119.727005 
	C136.522644,120.402130 136.480560,121.077263 136.438492,121.752396 
	C115.903976,122.181740 95.438873,120.550156 74.952934,119.537331 
	C74.970421,118.743454 74.987907,117.949585 75.005402,117.155716 
	C91.839775,117.774399 108.674156,118.393082 125.986450,119.039207 
z"/>
<path fill="#E1D3D4" opacity="1.000000" stroke="none" 
	d="
M134.040588,116.116798 
	C130.594223,116.197144 127.138535,116.480476 123.703133,116.322548 
	C109.178345,115.654831 94.659019,114.866302 80.140022,114.079231 
	C79.250153,114.030991 78.380249,113.614738 77.501053,113.369713 
	C77.544212,112.935867 77.587372,112.502029 77.630531,112.068192 
	C96.121323,113.029305 114.612114,113.990417 133.555298,115.280914 
	C134.018677,115.779129 134.029633,115.947968 134.040588,116.116798 
z"/>
<path fill="#E7E0E1" opacity="1.000000" stroke="none" 
	d="
M91.811012,104.901230 
	C85.315056,103.613663 78.819099,102.326096 72.323143,101.038521 
	C72.367661,100.606476 72.412178,100.174438 72.456696,99.742393 
	C75.998795,99.742393 79.540886,99.742393 83.956543,99.705200 
	C93.204727,100.145149 101.579361,100.622292 109.953987,101.099442 
	C109.213509,101.727623 108.473030,102.355804 106.922226,102.987686 
	C102.498703,102.865097 98.875702,102.543007 95.277878,102.723358 
	C94.088852,102.782959 92.964783,104.138329 91.811012,104.901230 
z"/>
<path fill="#DECDCD" opacity="1.000000" stroke="none" 
	d="
M114.125374,127.064697 
	C111.836388,126.738945 109.987358,126.435944 108.138329,126.132942 
	C108.182648,125.869225 108.226974,125.605499 108.271294,125.341782 
	C118.670403,125.341782 129.069504,125.341782 139.468613,125.341782 
	C139.466568,126.141273 139.464539,126.940773 139.462509,127.740265 
	C135.474457,127.740265 131.484116,127.824944 127.498978,127.717354 
	C123.185234,127.600883 118.876343,127.305054 114.125374,127.064697 
z"/>
<path fill="#E3D7D7" opacity="1.000000" stroke="none" 
	d="
M84.200981,87.114838 
	C85.935776,87.066055 87.232361,87.056274 89.179939,87.293404 
	C91.883698,87.997108 93.936470,88.453911 95.989235,88.910706 
	C96.097290,89.765831 96.205353,90.620956 96.173294,91.689697 
	C90.492821,91.841774 84.940331,91.962532 79.420357,91.594933 
	C77.977936,91.498871 76.636688,89.883751 74.579773,88.523857 
	C78.345169,87.962097 81.053970,87.557976 84.200981,87.114838 
z"/>
<path fill="#E1D3D4" opacity="1.000000" stroke="none" 
	d="
M118.095894,104.786880 
	C122.092796,105.011353 126.089706,105.235817 130.086609,105.460289 
	C130.043167,106.180092 129.999741,106.899895 129.956299,107.619698 
	C118.738358,106.995117 107.520401,106.370537 96.323471,105.035645 
	C99.901688,104.194481 103.458893,104.063629 107.016090,103.932785 
	C109.726555,104.175423 112.437027,104.418068 115.889778,104.766434 
	C117.120010,104.843727 117.607948,104.815300 118.095894,104.786880 
z"/>
<path fill="#E3D7D8" opacity="1.000000" stroke="none" 
	d="
M92.738167,126.005615 
	C82.566963,126.017311 72.862892,126.017311 63.158829,126.017311 
	C63.170940,125.120094 63.183056,124.222870 63.195168,123.325653 
	C74.392899,122.673225 85.581894,123.550598 96.772018,124.230904 
	C96.820808,124.691063 96.869598,125.151215 96.918396,125.611374 
	C95.680702,125.738892 94.443001,125.866409 92.738167,126.005615 
z"/>
<path fill="#E8E2E3" opacity="1.000000" stroke="none" 
	d="
M59.008595,131.420105 
	C56.218754,133.688416 56.026859,131.818115 55.962677,129.076981 
	C55.916885,127.922188 55.868675,127.457909 55.820465,126.993637 
	C55.469570,121.158775 55.118675,115.323914 54.767780,109.489052 
	C55.433193,109.420532 56.098610,109.352013 56.764023,109.283493 
	C57.522472,116.514267 58.280922,123.745049 59.008595,131.420105 
z"/>
<path fill="#E3D7D8" opacity="1.000000" stroke="none" 
	d="
M104.903778,108.956512 
	C106.517693,109.149780 107.683968,109.313438 108.850250,109.477097 
	C108.801369,110.077942 108.752487,110.678787 108.703606,111.279625 
	C99.422432,110.797218 90.141251,110.314804 80.860077,109.832397 
	C80.864227,109.317719 80.868370,108.803040 80.872520,108.288361 
	C84.777084,108.288361 88.683907,108.205315 92.585579,108.311554 
	C96.545082,108.419373 100.499504,108.714050 104.903778,108.956512 
z"/>
<path fill="#A24D46" opacity="1.000000" stroke="none" 
	d="
M109.974152,100.808029 
	C101.579361,100.622292 93.204727,100.145149 84.375275,99.518074 
	C83.920197,99.098434 83.936836,98.829773 83.972931,98.359947 
	C92.359093,98.484772 100.742699,98.811798 109.587479,99.244347 
	C110.030540,99.738785 110.012428,100.127701 109.974152,100.808029 
z"/>
<path fill="#C2908D" opacity="1.000000" stroke="none" 
	d="
M62.091976,96.921219 
	C62.439293,96.861015 62.669960,96.664108 63.203468,95.953918 
	C63.772774,94.696930 63.922585,93.816528 64.072395,92.936127 
	C64.588585,91.815552 65.104774,90.694977 65.620964,89.574402 
	C66.074242,89.616173 66.527519,89.657936 66.980797,89.699707 
	C66.773666,91.197266 66.671410,92.719673 66.324417,94.184097 
	C66.071503,95.251480 65.495842,96.242393 64.756645,97.708099 
	C64.348404,98.814125 64.247581,99.479454 64.146767,100.144775 
	C63.707153,100.789398 63.267540,101.434013 62.465881,101.672485 
	C62.099880,99.817963 62.095928,98.369591 62.091976,96.921219 
z"/>
<path fill="#A4534D" opacity="1.000000" stroke="none" 
	d="
M107.015717,103.730888 
	C103.458893,104.063629 99.901688,104.194481 96.091354,104.676697 
	C94.764351,104.995651 93.690483,104.963242 92.213806,104.916031 
	C92.964783,104.138329 94.088852,102.782959 95.277878,102.723358 
	C98.875702,102.543007 102.498703,102.865097 106.568497,103.058350 
	C107.025108,103.125320 107.015335,103.528992 107.015717,103.730888 
z"/>
<path fill="#C2908D" opacity="1.000000" stroke="none" 
	d="
M59.271988,90.893112 
	C60.193432,89.391289 61.427662,87.826012 63.001953,86.146469 
	C63.559048,86.862900 63.776077,87.693604 63.679497,89.103134 
	C63.203102,90.821243 63.040314,91.960518 62.877525,93.099800 
	C61.779942,92.343086 60.682358,91.586372 59.271988,90.893112 
z"/>
<path fill="#DECDCD" opacity="1.000000" stroke="none" 
	d="
M110.709686,94.107376 
	C109.639748,99.096664 106.284843,96.041702 103.241043,95.952805 
	C105.334450,95.292091 107.835159,94.656952 110.709686,94.107376 
z"/>
<path fill="#A4534D" opacity="1.000000" stroke="none" 
	d="
M118.380219,104.559822 
	C117.607948,104.815300 117.120010,104.843727 116.282761,104.754311 
	C117.057915,98.848534 120.839165,102.910950 123.645477,103.366592 
	C121.985168,103.688652 120.324852,104.010712 118.380219,104.559822 
z"/>
<path fill="#E3D7D7" opacity="1.000000" stroke="none" 
	d="
M108.329895,92.893799 
	C107.998878,91.767563 108.017555,90.702095 108.053741,89.237221 
	C109.284370,89.529045 110.497482,90.220261 112.803078,91.533974 
	C110.718025,92.252304 109.698807,92.603432 108.329895,92.893799 
z"/>
<path fill="#E8E2E3" opacity="1.000000" stroke="none" 
	d="
M61.863125,96.654205 
	C62.095928,98.369591 62.099880,99.817963 62.142223,101.701073 
	C61.866463,102.500656 61.552311,102.865501 61.238163,103.230347 
	C61.370201,100.949295 61.502239,98.668251 61.863125,96.654205 
z"/>
<path fill="#9B3F36" opacity="1.000000" stroke="none" 
	d="
M53.399265,102.035606 
	C53.517960,101.055336 53.945194,100.106476 54.631447,98.968971 
	C54.891296,100.018036 58.199272,102.445778 53.399265,102.035606 
z"/>
<path fill="#E8E2E3" opacity="1.000000" stroke="none" 
	d="
M62.914860,93.453499 
	C63.040314,91.960518 63.203102,90.821243 63.598656,89.431641 
	C63.897900,90.182228 63.964378,91.183144 64.051628,92.560089 
	C63.922585,93.816528 63.772774,94.696930 63.337990,95.757797 
	C63.019413,95.227913 62.985802,94.517555 62.914860,93.453499 
z"/>
<path fill="#D5BBBA" opacity="1.000000" stroke="none" 
	d="
M64.411026,99.979919 
	C64.247581,99.479454 64.348404,98.814125 64.709457,98.085312 
	C64.871544,98.619560 64.773407,99.217308 64.411026,99.979919 
z"/>
<path fill="#9B3F36" opacity="1.000000" stroke="none" 
	d="
M55.516022,126.997101 
	C55.868675,127.457909 55.916885,127.922188 55.903610,128.733322 
	C55.301666,128.564316 54.761204,128.048431 54.107422,127.273422 
	C54.399929,127.009712 54.805756,127.005135 55.516022,126.997101 
z"/>
<path fill="#C2908D" opacity="1.000000" stroke="none" 
	d="
M65.117905,102.970322 
	C65.302750,102.837059 65.506882,102.903816 65.711014,102.970581 
	C65.519737,103.037170 65.328468,103.103760 65.117905,102.970322 
z"/>
<path fill="#D5BBBA" opacity="1.000000" stroke="none" 
	d="
M134.290039,116.058197 
	C134.029633,115.947968 134.018677,115.779129 133.992371,115.357025 
	C134.164536,115.402374 134.352020,115.700981 134.290039,116.058197 
z"/>
<path fill="#000000" opacity="1.000000" stroke="none" 
	d="
M37.002647,162.697952 
	C36.669285,154.687363 36.155228,147.147522 36.090843,139.603836 
	C36.064728,136.544220 37.018185,133.476257 37.525913,130.412079 
	C37.989010,130.450134 38.452106,130.488190 38.915199,130.526245 
	C39.276073,136.086700 39.639282,141.647018 39.997143,147.207672 
	C40.333103,152.427979 40.799553,157.646576 40.879284,162.870941 
	C40.894894,163.893677 39.402771,164.939438 38.606041,165.974564 
	C38.071602,165.038757 37.537167,164.102951 37.002647,162.697952 
z"/>
<path fill="#000000" opacity="1.000000" stroke="none" 
	d="
M351.766846,174.572327 
	C349.459900,181.501144 346.260773,184.331955 341.312805,183.999924 
	C336.563263,183.681198 332.587494,180.406357 332.008118,176.335648 
	C331.012024,169.337067 334.044983,163.511368 339.046082,163.016846 
	C345.008026,162.427307 351.121979,164.133514 351.766846,174.572327 
z"/>
<path fill="#000000" opacity="1.000000" stroke="none" 
	d="
M300.814148,168.462799 
	C304.430481,175.892487 300.529327,184.648926 286.224731,183.746796 
	C286.224731,177.028793 286.224731,170.292419 286.224731,163.185486 
	C291.770721,162.775787 297.133545,162.497818 300.814148,168.462799 
z"/>
<path fill="#000000" opacity="1.000000" stroke="none" 
	d="
M241.493988,37.180973 
	C246.654266,43.003147 247.602264,46.617195 242.769318,51.680458 
	C239.529373,55.074814 235.678864,54.785526 232.041000,52.468315 
	C228.851593,50.436764 227.661392,44.080318 229.979065,40.461876 
	C232.150970,37.071041 235.166336,34.696182 239.644196,36.954136 
	C240.048447,37.157978 240.629471,37.011257 241.493988,37.180973 
z"/>
<path fill="#000000" opacity="1.000000" stroke="none" 
	d="
M296.221375,45.629608 
	C296.838104,46.827106 297.252930,47.685341 297.781921,48.779701 
	C295.393829,48.779701 293.218536,48.779701 290.562439,48.779701 
	C291.585266,45.944191 292.482178,43.457710 293.379120,40.971230 
	C293.739105,40.903393 294.099121,40.835552 294.459137,40.767715 
	C294.979279,42.275261 295.499390,43.782806 296.221375,45.629608 
z"/>
<path fill="#9B3D35" opacity="1.000000" stroke="none" 
	d="
M96.364052,88.823349 
	C93.936470,88.453911 91.883698,87.997108 89.572311,87.319763 
	C89.400772,82.184433 89.962196,77.217133 89.425629,72.371414 
	C88.992393,68.458801 90.431099,67.159546 93.814964,67.044830 
	C96.924301,66.939423 100.040031,67.022430 103.351791,67.022430 
	C103.351791,74.629753 103.351791,81.518280 103.351791,88.367027 
	C100.922340,88.502571 98.830605,88.619278 96.364052,88.823349 
z"/>
<path fill="#9E433C" opacity="1.000000" stroke="none" 
	d="
M97.926384,55.870346 
	C95.142235,55.853519 92.828735,55.853519 90.193275,55.853519 
	C90.193275,54.144081 90.193275,52.586819 90.193275,50.114994 
	C93.266289,50.114994 96.369232,50.338436 99.426811,50.061382 
	C103.755959,49.669106 104.830528,51.533310 103.552513,55.887169 
	C101.940300,55.887169 100.168671,55.887169 97.926384,55.870346 
z"/>
<path fill="#9F463F" opacity="1.000000" stroke="none" 
	d="
M97.909645,63.940773 
	C94.835175,63.932316 92.233475,63.932316 89.214645,63.932316 
	C89.336777,62.325554 89.441917,60.942371 89.568192,59.281090 
	C94.178017,59.281090 98.559837,59.281090 103.338699,59.281090 
	C103.338699,60.756607 103.338699,62.255836 103.338699,64.174080 
	C101.552330,64.093040 99.967369,64.021133 97.909645,63.940773 
z"/>
<path fill="#DECDCD" opacity="1.000000" stroke="none" 
	d="
M118.142258,97.754852 
	C118.966698,97.050583 120.044991,96.522110 121.123291,95.993637 
	C121.279388,96.477516 121.435486,96.961395 121.591583,97.445274 
	C120.526428,97.607063 119.461281,97.768852 118.142258,97.754852 
z"/>
</svg>