<svg className="filter-invert" xmlns="http://www.w3.org/2000/svg" viewBox="0 0 113.7 98.9" ><path d="M113.6 38.6H88.3V20.1h-4.1V79h4.1V56.5h25.4c0 .3.1.7.1 1.1v25c0 .5-.3 1.2-.6 1.6-4.7 4.8-9.5 9.5-14.2 14.2-.3.3-.9.6-1.4.6H73.8c-.4 0-1-.2-1.3-.5-4.8-4.7-9.6-9.5-14.3-14.3-.3-.3-.6-1-.6-1.5V16.4c0-.5.3-1.2.6-1.5L72.3.8c.4-.4 1-.7 1.5-.7h23.6c.6 0 1.3.3 1.6.7l14.1 14.1c.3.3.6.9.6 1.4V38c0 .1 0 .3-.1.6zM52.7 14.8c-4.7-4.6-9.3-9.3-14-14-.5-.5-1-.7-1.8-.7H0V99h24V65.6h12.9c.8 0 1.3-.2 1.9-.8 4.6-4.7 9.3-9.3 13.9-13.9.4-.4.7-1.1.7-1.6 0-10.9 0-21.8.1-32.8-.1-.8-.3-1.3-.8-1.7zM28.4 46.2h-4.3V19.9h4.3v26.3z"/></svg>