<svg xmlns="http://www.w3.org/2000/svg" xml:space="preserve" viewBox="0 0 151 32.85"><path fill-rule="evenodd" d="M3.17 27.88C-.15 26.93-.71 24.97.8 23.84c1.4-1.05 3.79-1.83 3.79-1.83l9.85-3.52v4.01l-7.09 2.55c-1.25.46-1.45 1.09-.43 1.42 1.02.33 2.86.24 4.11-.21l3.4-1.24v3.59c-.21.04-.46.08-.68.11-3.54.59-7.17.3-10.58-.84zm20.79.42 11.06-3.95c1.26-.46 1.45-1.09.43-1.42-1.02-.33-2.86-.24-4.11.21l-7.37 2.6V21.6l.43-.14c1.66-.54 3.38-.9 5.12-1.09 2.99-.33 6.66.05 9.54 1.14 3.24 1.03 3.61 2.54 2.79 3.58-.82 1.04-2.84 1.78-2.84 1.78l-15.03 5.41-.02-3.98zm1.29-25.68c5.82 2.01 7.8 4.51 7.8 10.15 0 5.49-3.37 7.58-7.66 5.5V8.02c0-1.2-.22-2.31-1.34-2.62-.86-.28-1.39.53-1.39 1.73v25.64l-6.88-2.19V0c2.92.55 7.18 1.83 9.47 2.62zm14.78 28.06c.01.08-.02.16-.08.22-.08.05-.16.07-.25.06h-.53v-.55h.56c.06 0 .13.01.18.03.08.05.13.14.12.24zm.38 1.24a.146.146 0 0 1-.06-.09c-.01-.05-.02-.1-.02-.15l-.01-.25c0-.09-.02-.18-.07-.26a.313.313 0 0 0-.11-.09c.06-.04.11-.09.14-.14.05-.09.08-.19.07-.3.02-.2-.1-.39-.28-.48a.889.889 0 0 0-.36-.07h-.89v1.94h.33v-.79h.52c.07 0 .14.01.2.03.07.04.12.12.11.21l.02.3c0 .05.01.1.01.15 0 .03.01.05.02.07l.01.02h.37v-.11.01zm-2.27-.81c0-.38.15-.75.42-1.02.54-.56 1.43-.57 1.99-.03l.03.03c.56.57.55 1.49-.02 2.05-.26.26-.62.41-.99.42-.38 0-.74-.15-1.01-.42a1.47 1.47 0 0 1-.42-1.03zm1.43 1.74c.46 0 .89-.18 1.21-.51.67-.68.67-1.77 0-2.46a1.67 1.67 0 0 0-1.21-.51c-.96.02-1.73.81-1.71 1.78.01.45.19.87.5 1.19.31.33.75.51 1.21.51z" clip-rule="evenodd"/><path d="M147.89 26.27h-.29v-2h-.67v-.28h1.64v.28h-.67l-.01 2zm2.03-.53.63-1.75h.45v2.29h-.3v-1.91l-.7 1.9h-.19l-.69-1.91v1.91h-.29v-2.29h.46l.63 1.76zm-5.93-19.2h-28.04v7.6s-.09 2.93 3.54 2.93h17.14c.67-.01 1.34.13 1.95.4.96.43 2.03 1.3 2.03 3.05 0 1.57-.76 2.47-1.52 2.97-.62.4-1.35.62-2.1.61h-21.06v2.13h23.48s5.33-.22 5.33-5.7c0-2.79-1.63-4.17-3.09-4.84-.95-.43-1.98-.66-3.02-.65h-16.99c-.28 0-.56-.06-.81-.19-.36-.2-.76-.59-.76-1.35V8.65h23.89V6.54zM80.67 24.09v2.13h11.9c1.42.02 2.8-.48 3.89-1.41a4.898 4.898 0 0 0 1.73-3.86v-9.07c-.01-1 .44-1.96 1.22-2.59.55-.43 1.23-.66 1.92-.65h10.38v-2.1H99.35s-5.33.09-5.33 5.73v8.47a3.7 3.7 0 0 1-.54 1.97c-.53.89-1.51 1.42-2.54 1.39l-10.27-.01zM53.19 6.54v2.1H74.4c.59-.01 1.17.12 1.71.37.84.39 1.79 1.21 1.79 2.85 0 1.6-.94 2.4-1.79 2.8-.54.25-1.14.38-1.74.37H58.64c-.93-.01-1.85.2-2.69.61-1.31.66-2.76 2.2-2.76 4.75v5.79h4.08v-5.76c0-.37.06-.75.2-1.1.34-.86 1.19-2.25 3.18-2.25h15.86c.53 0 1.06-.07 1.58-.21 1.46-.41 3.89-1.61 3.89-5 0-5.26-5.24-5.33-5.24-5.33H53.19z"/></svg>