<svg xmlns="http://www.w3.org/2000/svg" aria-labelledby="xboxXSLogoID" viewBox="0 0 156.02 29.79"><path d="m93.75 24.06-5.59-7.74-5.59 7.74h-2.3l6.72-9.36-6.14-8.5h2.3l5.01 6.94 5-6.94h2.3l-6.14 8.5 6.73 9.37zm-43.59 0-6.73-9.36 6.14-8.51h-2.3l-5 6.94-5.01-6.93h-2.29l6.14 8.5-6.73 9.36h2.3l5.59-7.74 5.59 7.74h2.3z"/><path d="M62.96 15.38c-.35-.3-.73-.55-1.15-.75 1.3-.72 2.11-2.09 2.11-3.58 0-1.14-.41-4.86-5.69-4.86h-7.11v7.7h-2.37c-.44.59-.86 1.19-1.27 1.79h3.64v8.37h7.11c3.85 0 6.24-1.99 6.24-5.22 0-1.39-.52-2.59-1.51-3.45zm-4.73-7.32c1.39 0 3.72.35 3.72 2.84 0 1.88-1.36 3-3.72 3h-5.15V8.06h5.15zm0 14.14h-5.15v-6.5h5.15c1.95 0 4.29.55 4.29 3.11-.01 2.94-2.69 3.39-4.29 3.39zM73.72 5.78c-4.92 0-8.35 3.84-8.35 9.33 0 5.5 3.44 9.34 8.35 9.34s8.34-3.83 8.34-9.34c.01-5.49-3.42-9.33-8.34-9.33zm0 16.79c-3.75 0-6.37-3.07-6.37-7.45s2.62-7.45 6.37-7.45c3.74 0 6.35 3.06 6.35 7.45s-2.6 7.45-6.35 7.45zM4.35 4.28l-.01.02A14.965 14.965 0 0 0 0 14.89a15.02 15.02 0 0 0 2.98 9.02c.02.03.05.04.08.03.03-.02.03-.05.02-.08-1.12-3.51 4.57-12.02 7.51-15.59.01-.01.02-.03.02-.05 0-.02-.01-.04-.03-.05-4.94-5.01-6.26-3.86-6.24-3.88l.01-.01zm20.49 0 .01.01a14.97 14.97 0 0 1 4.34 10.6 15.02 15.02 0 0 1-2.98 9.02c-.02.03-.05.04-.08.03-.02-.02-.02-.05-.02-.08 1.11-3.51-4.57-12.03-7.51-15.6a.076.076 0 0 1-.02-.04c0-.02.01-.04.03-.05 4.94-5.02 6.25-3.86 6.24-3.88-.01.01-.01-.01-.01-.01zM14.6 0c2.94 0 5.37.82 7.6 2.18.03.01.04.05.02.07-.01.03-.04.03-.07.03-2.83-.62-7.12 1.87-7.53 2.12-.01.01-.02.01-.03.01-.01 0-.02 0-.03-.01-1.08-.63-5.05-2.75-7.55-2.1-.03.01-.06 0-.07-.03-.01-.03 0-.06.03-.07C9.2.83 11.66 0 14.6 0zm0 11.94c.02 0 .03.01.05.02 4.37 3.39 11.84 11.77 9.56 14.14a14.38 14.38 0 0 1-9.61 3.68c-3.55 0-6.97-1.31-9.61-3.68-2.28-2.37 5.2-10.75 9.56-14.14.01 0 .03-.02.05-.02zm128.58 2.87 2.29-3.21a6.54 6.54 0 0 1-2.11-.93c-.64-.5-1-1.28-.95-2.09-.04-.82.35-1.6 1.03-2.06.89-.54 1.92-.8 2.96-.73 4.03 0 5.08 2.16 5.79 3.08l2.16-3.03c-.36-.61-.83-1.15-1.37-1.6-1.51-1.27-3.72-1.9-6.65-1.9-2.58 0-4.59.58-6.04 1.73a5.65 5.65 0 0 0-2.18 4.65c0 3.06 1.69 5.01 5.07 6.09zm11.11-.16c-1.01-.92-2.57-1.64-4.7-2.16l-2.32 3.25c1.22.25 2.37.73 3.4 1.43.65.46 1.02 1.23.98 2.03.05.95-.38 1.87-1.15 2.43-1 .62-2.16.92-3.33.84-3.35 0-4.93-1.13-6.55-4.08l-2.31 3.24c.41.86 1 1.63 1.74 2.24 1.65 1.38 3.98 2.06 6.99 2.06 2.82 0 5.03-.61 6.6-1.82a6.115 6.115 0 0 0 2.37-5.12c.09-1.64-.54-3.22-1.72-4.34zM133.4 2.83h.96v22.59h-.96zm-27.42-.11c.32-.01.63.13.82.39.4.69.38 1.56-.04 2.24-.23.28-.58.43-.94.42v-.69c.21.02.41-.07.54-.23.12-.2.18-.43.16-.67a.924.924 0 0 0-.13-.54.447.447 0 0 0-.38-.19c-.13 0-.25.06-.32.16-.1.18-.17.38-.19.58l-.06.31c-.04.32-.18.63-.38.88-.18.2-.44.3-.71.3a.892.892 0 0 1-.74-.36c-.2-.29-.29-.64-.27-1-.03-.39.08-.78.3-1.1.21-.25.52-.4.85-.39v.68c-.17 0-.34.08-.45.21-.11.18-.16.38-.15.59-.01.17.03.34.11.48.07.11.19.17.32.17s.25-.05.33-.15c.1-.17.17-.36.19-.56l.06-.32c.04-.34.17-.66.38-.93.19-.19.44-.29.7-.28zm-.69 19.94c-.2.27-.33.59-.38.93l-.06.32c-.03.2-.09.39-.19.56-.08.1-.2.16-.33.15-.13 0-.25-.06-.32-.17a.894.894 0 0 1-.11-.48c-.02-.21.03-.42.15-.59.11-.13.28-.21.45-.21v-.68c-.33 0-.64.14-.85.39-.22.32-.33.71-.3 1.1-.02.35.08.71.27 1 .17.23.45.37.74.36.27.01.52-.1.71-.3.21-.25.34-.56.38-.88l.06-.31c.03-.21.1-.4.19-.58.07-.1.19-.16.32-.16.15-.01.3.06.38.19.1.16.14.35.13.54.02.23-.04.47-.16.67-.13.16-.34.25-.55.23v.69c.36.02.71-.14.94-.42.42-.68.44-1.54.04-2.24-.19-.26-.5-.4-.82-.39a.865.865 0 0 0-.69.28zm.32-6.6v-.9c-.01-.15.03-.31.13-.43.13-.1.29-.16.45-.15l.39-.02c.15 0 .3-.03.43-.1v-.72l-.01.02c-.13.08-.27.11-.42.11l-.53.03c-.17 0-.35.04-.5.13a.69.69 0 0 0-.27.38.85.85 0 0 0-.86-.6.924.924 0 0 0-.83.47l.03-.04c-.13.21-.2.45-.2.7v-.08c-.01.08-.01.16-.01.24v1.66H107v-.7h-1.39zm-.55.01h-1.08v-.89c-.01-.17.04-.33.13-.47.1-.11.24-.18.39-.17.15-.01.31.05.41.16.1.13.15.29.14.45v.92zm-1.64-4.49h3.59v.7h-3.59zm.62-4.4h-.62v2.7h3.59v-2.7h-.62v2h-.92V7.37h-.59v1.81h-.85zm0 11.09h-.62v2.7h3.59v-2.7h-.62v2h-.92v-1.81h-.59v1.81h-.85zm4.53 7.15h4.76l3.62-5.07-2.38-3.34zm20.88-22.59h-4.77l-2.96 4.15 2.38 3.34zm-15.46 0h-4.76l16.11 22.59h4.76z"/></svg>